<svg width="210" height="206" viewBox="0 0 210 206" fill="none" xmlns="http://www.w3.org/2000/svg">
<g clip-path="url(#clip0_1124_18746)">
<path d="M34.05 146.61C30.39 155.66 20.09 160.02 11.05 156.36C2.00998 152.7 -2.36001 142.4 1.29999 133.35C3.35999 128.27 7.49999 124.66 12.35 123.14L29 81.99L49.88 90.44L33.22 131.6C35.63 136.06 36.11 141.53 34.05 146.61Z" fill="#514FFF"/>
<path d="M175.87 146.61C179.53 155.66 189.83 160.02 198.87 156.36C207.91 152.7 212.28 142.4 208.62 133.35C206.56 128.27 202.42 124.66 197.57 123.14L180.92 81.99L160.04 90.44L176.7 131.6C174.29 136.06 173.81 141.53 175.87 146.61Z" fill="#514FFF"/>
<path d="M107.83 137.99V197.87C107.83 204.55 96.52 205.59 79.54 205.59C62.56 205.59 46.35 204.55 46.35 197.87C46.35 191.19 60.11 184.4 77.09 184.4C79.81 184.4 84.44 184.58 88.37 184.9V135.62L100.2 137.63L107.83 137.99Z" fill="#514FFF"/>
<path d="M173.31 197.87C173.31 204.55 157.09 205.59 140.11 205.59C123.13 205.59 111.83 204.55 111.83 197.87V137.99L122.55 137.28L131.29 135.62V184.88C135.3 184.57 139.93 184.4 142.57 184.4C159.55 184.4 173.31 191.2 173.31 197.87Z" fill="#514FFF"/>
<path d="M180.59 92.26C180.59 116.56 195.22 148.89 171.04 174.02C151.41 194.43 61.47 191.56 43.52 177.95C14.2 155.71 28.71 119.27 28.71 92.26C28.71 65.25 25.95 21.83 48.94 3.94C62.99 -6.99 100.48 51.06 100.48 51.06C100.48 51.06 144.46 -13.54 160.07 2.58C177.18 20.25 180.59 69.67 180.59 92.26Z" fill="#FFD95C"/>
<path d="M85.85 70.54C75.08 70.54 66.36 79.26 66.36 90.03C66.36 100.8 75.08 109.52 85.85 109.52C96.62 109.52 105.34 100.79 105.34 90.03C105.34 79.27 96.61 70.54 85.85 70.54ZM89.8 102.32C84.28 102.32 79.81 97.85 79.81 92.34C79.81 86.83 84.28 82.35 89.8 82.35C95.32 82.35 99.78 86.82 99.78 92.34C99.78 97.86 95.31 102.32 89.8 102.32Z" fill="white"/>
<path d="M99.78 92.34C99.78 97.85 95.31 102.32 89.8 102.32C84.29 102.32 79.81 97.85 79.81 92.34C79.81 86.83 84.28 82.35 89.8 82.35C95.32 82.35 99.78 86.82 99.78 92.34Z" fill="#0A0A0A"/>
<path d="M125.56 70.54C114.8 70.54 106.07 79.26 106.07 90.03C106.07 100.8 114.8 109.52 125.56 109.52C136.32 109.52 145.05 100.79 145.05 90.03C145.05 79.27 136.32 70.54 125.56 70.54ZM124.45 102.32C118.93 102.32 114.46 97.85 114.46 92.34C114.46 86.83 118.93 82.35 124.45 82.35C129.97 82.35 134.43 86.82 134.43 92.34C134.43 97.86 129.96 102.32 124.45 102.32Z" fill="white"/>
<path d="M134.43 92.34C134.43 97.85 129.96 102.32 124.45 102.32C118.94 102.32 114.46 97.85 114.46 92.34C114.46 86.83 118.93 82.35 124.45 82.35C129.97 82.35 134.43 86.82 134.43 92.34Z" fill="#0A0A0A"/>
<path d="M127.94 87.15C128.691 87.15 129.3 86.5411 129.3 85.79C129.3 85.0389 128.691 84.43 127.94 84.43C127.189 84.43 126.58 85.0389 126.58 85.79C126.58 86.5411 127.189 87.15 127.94 87.15Z" fill="white"/>
<path d="M93.54 87.15C94.2911 87.15 94.9 86.5411 94.9 85.79C94.9 85.0389 94.2911 84.43 93.54 84.43C92.7889 84.43 92.18 85.0389 92.18 85.79C92.18 86.5411 92.7889 87.15 93.54 87.15Z" fill="white"/>
<path d="M102.88 108.01H108.25C109.41 108.01 110.31 109.02 110.17 110.17C109.74 113.65 108.54 120.13 105.57 120.45C102.6 120.77 101.37 113.81 100.95 110.16C100.82 109.01 101.72 108.01 102.87 108.01H102.88Z" fill="white" stroke="#0A0A0A" stroke-width="3" stroke-miterlimit="10"/>
</g>
<defs>
<clipPath id="clip0_1124_18746">
<rect width="209.91" height="205.59" fill="white"/>
</clipPath>
</defs>
</svg>
