<svg width="145" height="277" viewBox="0 0 145 277" fill="none" xmlns="http://www.w3.org/2000/svg">
<g clip-path="url(#clip0_1968_9952)">
<path d="M130.38 169.89L110.41 181.56V209.84L75.07 214.44H75.06C74.98 214.07 74.9 213.73 74.83 213.41C74.76 213.73 74.68 214.07 74.6 214.44H74.59L39.25 209.84V181.56L19.28 169.89C24.44 160.21 33.13 149.95 38.76 143.77C41.99 140.23 44.22 138.03 44.22 138.03H47.05C54.67 141.22 63.33 143.03 72.5 143.03C73.28 143.03 74.06 143.02 74.83 142.99C83.14 142.71 90.98 140.95 97.96 138.03H105.44C105.44 138.03 107.02 139.59 109.45 142.2C114.94 148.1 124.76 159.33 130.38 169.89Z" fill="#FFD95C"/>
<path d="M18.2999 190.9C16.9899 189.81 16.1099 188.51 15.5899 187.04C15.0099 185.4 14.8799 183.55 15.1099 181.55C15.1599 181.12 15.2299 180.68 15.3099 180.24C15.3099 180.21 15.3199 180.18 15.3299 180.14C15.4399 179.58 15.5699 179.02 15.7199 178.44C15.8099 178.09 15.9199 177.74 16.0299 177.39C16.0999 177.16 16.1799 176.92 16.2599 176.69C16.3699 176.35 16.4899 176 16.6299 175.66C16.7199 175.4 16.8199 175.15 16.9199 174.9C17.0299 174.61 17.1499 174.32 17.2699 174.04C17.3999 173.71 17.5399 173.39 17.6999 173.07C17.8399 172.76 17.9799 172.45 18.1299 172.14C18.2699 171.83 18.4299 171.52 18.5799 171.21C18.7299 170.9 18.8899 170.59 19.0599 170.28C19.1299 170.14 19.1999 170.01 19.2799 169.88L39.2499 181.55V181.57C39.2499 181.57 39.2199 181.65 39.2099 181.72C39.1899 181.77 39.1799 181.83 39.1499 181.9C39.1299 181.96 39.0999 182.04 39.0799 182.12C39.0499 182.21 39.0199 182.32 38.9799 182.43C37.6699 186.36 31.4599 201.84 18.2999 190.9Z" fill="#FFD95C"/>
<path d="M74.5901 214.43C74.5901 214.49 74.5701 214.54 74.5601 214.6C74.1801 216.26 73.6901 218.38 73.1301 220.66C73.0201 221.1 72.9101 221.55 72.8001 222C72.5701 222.94 72.3201 223.91 72.0701 224.86C71.9501 225.31 71.8301 225.77 71.7201 226.21C71.6001 226.63 71.4901 227.05 71.3801 227.45C71.2901 227.76 71.2101 228.05 71.1201 228.35C70.4201 230.82 69.7201 233.02 69.0901 234.48C66.6101 240.3 32.2001 246.95 28.8901 234.48C25.5701 222.01 39.2501 221.17 39.2501 221.17V209.83L74.5901 214.43Z" fill="#FFD95C"/>
<path d="M39.2499 181.55V181.57C39.2499 181.57 39.2199 181.65 39.2099 181.72C39.1899 181.77 39.1699 181.83 39.1499 181.9C39.1299 181.96 39.0999 182.04 39.0799 182.12C39.0499 182.21 39.0099 182.32 38.9799 182.43C37.6499 186.39 31.4399 201.8 18.2999 190.88C16.9999 189.79 16.1099 188.5 15.5899 187.04C15.0099 185.4 14.8799 183.55 15.1099 181.55C15.1599 181.12 15.2299 180.68 15.3099 180.24C15.3099 180.21 15.3199 180.18 15.3299 180.14C15.4399 179.58 15.5699 179.02 15.7199 178.44C15.8099 178.09 15.9199 177.74 16.0299 177.39C16.0999 177.16 16.1799 176.92 16.2599 176.69C16.3699 176.35 16.4899 176 16.6299 175.66C16.7199 175.4 16.8199 175.15 16.9199 174.9C17.0299 174.61 17.1499 174.32 17.2699 174.04C17.3999 173.71 17.5399 173.39 17.6999 173.07C17.8399 172.76 17.9799 172.45 18.1299 172.14C18.2699 171.83 18.4299 171.52 18.5799 171.21C18.7299 170.9 18.8899 170.59 19.0599 170.28C19.1199 170.14 19.1999 170.01 19.2699 169.87H19.2799L39.2499 181.55Z" fill="#F6F6F6"/>
<path d="M74.6001 214.43C74.5901 214.49 74.5701 214.54 74.5601 214.6C74.1801 216.26 73.6901 218.38 73.1301 220.66C73.0301 221.1 72.9201 221.55 72.8001 222C72.5701 222.94 72.3201 223.91 72.0701 224.86C71.9501 225.31 71.8301 225.76 71.7201 226.21C71.6001 226.63 71.4901 227.05 71.3801 227.45C71.2901 227.75 71.2101 228.05 71.1201 228.35C70.4201 230.82 69.7201 233.02 69.0901 234.48C66.6101 240.3 32.2001 246.95 28.8901 234.48C25.5701 222.01 39.2501 221.17 39.2501 221.17V209.83L74.5901 214.43H74.6001Z" fill="#F6F6F6"/>
<path d="M120.77 234.48C117.46 246.95 83.0501 240.3 80.5701 234.48C79.9401 233.02 79.2401 230.82 78.5401 228.35C78.4501 228.05 78.3701 227.76 78.2801 227.45C78.1701 227.05 78.0601 226.63 77.9401 226.21C77.8301 225.76 77.7101 225.31 77.5901 224.86C77.3401 223.91 77.0901 222.94 76.8601 222C76.7501 221.55 76.6401 221.1 76.5301 220.66C75.9701 218.38 75.4801 216.26 75.1001 214.6C75.0901 214.54 75.0801 214.49 75.0701 214.43L110.41 209.83V221.17C110.41 221.17 124.09 222.01 120.77 234.48Z" fill="#FFD95C"/>
<path d="M134.07 187.04C133.55 188.51 132.67 189.81 131.36 190.9C118.2 201.84 111.99 186.36 110.68 182.43C110.65 182.32 110.61 182.21 110.58 182.12C110.56 182.04 110.53 181.96 110.51 181.9C110.49 181.83 110.47 181.77 110.45 181.72C110.44 181.65 110.42 181.6 110.41 181.57V181.55L130.38 169.88C130.46 170.01 130.53 170.14 130.6 170.28C130.77 170.59 130.93 170.9 131.08 171.21C131.23 171.52 131.39 171.83 131.53 172.14C131.68 172.45 131.82 172.76 131.96 173.07C132.12 173.39 132.26 173.72 132.39 174.04C132.51 174.32 132.63 174.61 132.74 174.9C132.84 175.15 132.94 175.4 133.03 175.66C133.17 176.01 133.29 176.35 133.4 176.69C133.48 176.92 133.56 177.16 133.63 177.39C133.75 177.75 133.85 178.1 133.94 178.44C134.08 178.98 134.21 179.51 134.31 180.04C134.33 180.11 134.34 180.18 134.35 180.25C134.43 180.67 134.5 181.09 134.54 181.5C134.56 181.61 134.57 181.72 134.58 181.83C134.77 183.72 134.62 185.47 134.07 187.04Z" fill="#FFD95C"/>
<path d="M134.07 187.04C133.55 188.5 132.66 189.79 131.36 190.88C118.22 201.8 112.01 186.39 110.68 182.43C110.65 182.32 110.61 182.21 110.58 182.12C110.56 182.04 110.53 181.96 110.51 181.9C110.49 181.83 110.47 181.77 110.45 181.72C110.44 181.65 110.42 181.6 110.41 181.57V181.55L130.38 169.88H130.39C130.46 170.01 130.54 170.14 130.6 170.28C130.77 170.59 130.93 170.9 131.08 171.21C131.23 171.52 131.39 171.83 131.53 172.14C131.68 172.45 131.82 172.76 131.96 173.07C132.12 173.39 132.26 173.72 132.39 174.04C132.51 174.32 132.63 174.61 132.74 174.9C132.84 175.15 132.94 175.4 133.03 175.66C133.17 176.01 133.29 176.35 133.4 176.69C133.48 176.92 133.56 177.16 133.63 177.39C133.75 177.75 133.85 178.1 133.94 178.44C134.08 178.98 134.21 179.51 134.31 180.04C134.33 180.11 134.34 180.18 134.35 180.25C134.43 180.67 134.5 181.09 134.54 181.5C134.56 181.61 134.57 181.72 134.58 181.83C134.77 183.72 134.62 185.47 134.07 187.04Z" fill="#F6F6F6"/>
<path d="M120.77 234.48C117.46 246.95 83.0501 240.3 80.5701 234.48C79.9401 233.02 79.2401 230.82 78.5401 228.35C78.4501 228.05 78.3701 227.75 78.2801 227.45C78.1701 227.05 78.0601 226.63 77.9401 226.21C77.8301 225.76 77.7101 225.31 77.5901 224.86C77.3401 223.91 77.0901 222.94 76.8601 222C76.7501 221.55 76.6401 221.1 76.5301 220.66C75.9701 218.38 75.4801 216.26 75.1001 214.6C75.0901 214.54 75.0701 214.49 75.0601 214.43H75.0701L110.41 209.83V221.17C110.41 221.17 124.09 222.01 120.77 234.48Z" fill="#F6F6F6"/>
<path d="M72.5 143C103.152 143 128 122.853 128 98C128 73.1472 103.152 53 72.5 53C41.8482 53 17 73.1472 17 98C17 122.853 41.8482 143 72.5 143Z" fill="#F6F6F6"/>
<path d="M72.5 24.5601C32.46 24.5601 0 52.8701 0 87.7901C0 112.08 15.71 133.18 38.76 143.76C48.84 148.4 60.32 151.02 72.5 151.02C86 151.02 98.63 147.8 109.45 142.19C130.74 131.18 145 110.94 145 87.7901C145 52.8701 112.54 24.5601 72.5 24.5601ZM97.96 138.02C90.98 140.94 83.14 142.7 74.83 142.98C74.06 143.01 73.28 143.02 72.5 143.02C63.33 143.02 54.67 141.21 47.05 138.02C29.2 130.53 17 115.43 17 98.0201C17 73.1601 41.85 53.0201 72.5 53.0201C103.15 53.0201 128 73.1601 128 98.0201C128 115.43 115.81 130.53 97.96 138.02Z" fill="#FFD95C"/>
<path d="M131.69 53.0199L134.35 41.1699C136.38 32.1199 136.92 22.7499 135.65 13.5399C135.24 10.5199 134.67 7.85994 133.97 6.10994C132.57 2.54994 130.71 -0.430064 128.8 0.0399365C103.47 6.22994 90.0901 26.2699 90.0901 26.2699L131.68 53.0099L131.69 53.0199Z" fill="#FFD95C"/>
<path d="M13.73 53.02L11.07 41.17C9.03999 32.12 8.49999 22.75 9.76999 13.54C10.18 10.52 10.75 7.85999 11.45 6.10999C12.87 2.58999 14.71 -0.390011 16.61 0.0799894C41.94 6.26999 55.32 26.31 55.32 26.31L13.73 53.05V53.02Z" fill="#FFD95C"/>
<path d="M86.49 100.2C89.5289 100.2 91.99 97.7388 91.99 94.7C91.99 91.6611 89.5289 89.2 86.49 89.2C83.4511 89.2 80.99 91.6611 80.99 94.7C80.99 97.7388 83.4511 100.2 86.49 100.2Z" fill="#0B0A0A"/>
<path d="M83.5665 93.8798C84.2598 93.8798 84.8144 93.3252 84.8144 92.6319C84.8144 91.9387 84.2598 91.384 83.5665 91.384C82.8732 91.384 82.3186 91.9387 82.3186 92.6319C82.3186 93.3252 82.8732 93.8798 83.5665 93.8798Z" fill="#EEEEFF"/>
<path d="M56.5 100C59.5389 100 62 97.5389 62 94.5C62 91.4611 59.5389 89 56.5 89C53.4611 89 51 91.4611 51 94.5C51 97.5389 53.4611 100 56.5 100Z" fill="#0B0A0A"/>
<path d="M53.5765 93.6799C54.2698 93.6799 54.8244 93.1253 54.8244 92.432C54.8244 91.7387 54.2698 91.1841 53.5765 91.1841C52.8832 91.1841 52.3286 91.7387 52.3286 92.432C52.3286 93.1253 52.8832 93.6799 53.5765 93.6799Z" fill="#EEEEFF"/>
<path d="M72.44 111.03C64.99 111.03 57.1 109.15 56.77 109.07C56.23 108.94 55.9 108.4 56.03 107.86C56.16 107.32 56.7 107 57.24 107.12C57.32 107.14 65.24 109.03 72.44 109.03C79.64 109.03 84.52 107.18 84.57 107.16C85.09 106.96 85.66 107.22 85.86 107.74C86.06 108.26 85.8 108.83 85.28 109.03C85.07 109.11 79.95 111.03 72.43 111.03H72.44Z" fill="#0B0A0A"/>
<path d="M73.3299 101.41C73.2099 101.41 73.0999 101.39 72.9799 101.35C71.0399 100.64 69.6399 101.28 69.5799 101.31C69.0799 101.55 68.4899 101.34 68.2499 100.85C68.0099 100.36 68.2099 99.77 68.6999 99.52C68.7899 99.48 70.8999 98.45 73.6799 99.48C74.1999 99.67 74.4599 100.25 74.2699 100.76C74.1199 101.16 73.7399 101.41 73.3299 101.41Z" fill="#0B0A0A"/>
<path d="M66.4601 81.9599C65.2501 81.9599 64.0301 81.7499 62.8101 81.3199L62.5401 81.1999C54.0501 76.8599 57.5501 61.8399 57.7001 61.1999C57.9801 60.0399 59.1401 59.3299 60.3001 59.6099C61.4601 59.8899 62.1701 61.0499 61.8901 62.2099C61.0801 65.5999 59.9701 74.8699 64.3801 77.2999C66.0601 77.8499 67.6201 77.7599 69.1401 77.0099C67.5301 74.6399 66.7601 71.9099 66.3101 70.2899C65.5001 67.4199 65.9801 64.2999 67.5601 62.1599C68.7801 60.4999 70.5601 59.5599 72.5501 59.5099C74.5201 59.4499 76.3201 60.2799 77.5801 61.8199C79.2601 63.8599 79.8501 66.9299 79.1601 70.0099C78.6701 72.2099 77.4901 74.7999 75.7201 77.0099C76.9701 77.3899 78.4401 77.2799 80.2101 76.6799C86.0901 73.9999 82.2901 61.7999 82.2501 61.6799C81.8801 60.5499 82.5001 59.3399 83.6301 58.9699C84.7601 58.5999 85.9701 59.2099 86.3401 60.3399C86.5601 60.9999 91.5101 76.4499 81.8601 80.6599L81.7001 80.7199C78.3601 81.8699 75.4101 81.7999 72.9201 80.4899C72.7101 80.3799 72.5101 80.2599 72.3101 80.1399C72.0701 80.2899 71.8301 80.4399 71.5801 80.5799C69.9501 81.4799 68.2201 81.9399 66.4501 81.9399L66.4601 81.9599ZM72.7301 63.8199C72.7301 63.8199 72.6901 63.8199 72.6701 63.8199C72.0001 63.8399 71.4701 64.1299 71.0301 64.7299C70.2301 65.8099 70.0101 67.5399 70.4601 69.1399C70.8101 70.3799 71.3901 72.4699 72.4601 74.2099C73.7201 72.5999 74.6101 70.6899 74.9701 69.0799C75.3601 67.3299 75.0901 65.5599 74.2701 64.5599C73.8601 64.0599 73.3601 63.8199 72.7401 63.8199H72.7301Z" fill="#8886FF"/>
<path d="M64.5101 169.96C64.0701 169.96 63.6701 169.67 63.5501 169.23C63.5101 169.08 62.5301 165.43 63.9301 161.56C64.1801 160.86 64.5401 160.2 64.9901 159.62C63.7601 156.77 64.3401 153.32 66.5801 150.94L67.8601 149.58C68.2401 149.18 68.8701 149.16 69.2701 149.54C69.6701 149.92 69.6901 150.55 69.3101 150.95L68.0301 152.31C66.5301 153.9 66.0201 156.13 66.5601 158.09C67.0001 157.77 67.4801 157.5 67.9801 157.29C69.2401 156.75 70.6201 157.21 71.3201 158.41C72.0001 159.57 71.7401 160.95 70.6801 161.77L70.5501 161.86C69.1701 162.85 67.3001 162.66 66.1401 161.48C66.0001 161.73 65.8901 161.98 65.7901 162.25C64.6101 165.5 65.4501 168.68 65.4601 168.71C65.6001 169.24 65.2901 169.79 64.7601 169.94C64.6701 169.96 64.5801 169.98 64.4901 169.98L64.5101 169.96ZM67.4601 159.92C67.9101 160.54 68.7701 160.68 69.4001 160.23L69.4801 160.17C69.8301 159.9 69.7101 159.58 69.6101 159.41C69.5401 159.29 69.2701 158.91 68.7801 159.12C68.3001 159.33 67.8601 159.6 67.4601 159.92Z" fill="#8886FF"/>
<path d="M83.0101 169.96C82.9201 169.96 82.83 169.95 82.74 169.92C82.21 169.77 81.9001 169.22 82.0401 168.69C82.0401 168.66 82.8901 165.49 81.7101 162.23C81.6101 161.96 81.5001 161.71 81.3601 161.46C80.2101 162.64 78.33 162.83 76.96 161.84L76.8301 161.74C75.7701 160.93 75.5101 159.55 76.1901 158.38C76.8901 157.18 78.26 156.72 79.53 157.26C80.04 157.48 80.51 157.75 80.95 158.06C81.49 156.09 80.9801 153.87 79.4801 152.28L78.2 150.92C77.82 150.52 77.84 149.88 78.24 149.51C78.64 149.13 79.2801 149.15 79.6501 149.55L80.9301 150.91C83.1701 153.29 83.74 156.75 82.52 159.59C82.97 160.18 83.3301 160.83 83.5801 161.54C84.9801 165.41 84 169.06 83.96 169.21C83.84 169.65 83.4401 169.94 83.0001 169.94L83.0101 169.96ZM78.4701 159.06C78.1601 159.06 77.97 159.32 77.92 159.41C77.82 159.58 77.7101 159.9 78.0501 160.17L78.13 160.23C78.75 160.67 79.61 160.53 80.06 159.91C79.66 159.58 79.22 159.31 78.74 159.11C78.64 159.07 78.55 159.05 78.46 159.05L78.4701 159.06Z" fill="#8886FF"/>
</g>
<defs>
<clipPath id="clip0_1968_9952">
<rect width="145" height="276.029" fill="white" transform="translate(0 -0.0090332)"/>
</clipPath>
</defs>
</svg>
