<svg width="145" height="152" viewBox="0 0 145 152" fill="none" xmlns="http://www.w3.org/2000/svg">
<path d="M72.5 143.009C103.152 143.009 128 122.862 128 98.009C128 73.1562 103.152 53.009 72.5 53.009C41.8482 53.009 17 73.1562 17 98.009C17 122.862 41.8482 143.009 72.5 143.009Z" fill="#F6F6F6"/>
<path d="M72.5 24.5691C32.46 24.5691 0 52.8791 0 87.7991C0 112.089 15.71 133.189 38.76 143.769C48.84 148.409 60.32 151.029 72.5 151.029C86 151.029 98.63 147.809 109.45 142.199C130.74 131.189 145 110.949 145 87.7991C145 52.8791 112.54 24.5691 72.5 24.5691ZM97.96 138.029C90.98 140.949 83.14 142.709 74.83 142.989C74.06 143.019 73.28 143.029 72.5 143.029C63.33 143.029 54.67 141.219 47.05 138.029C29.2 130.539 17 115.439 17 98.0291C17 73.1691 41.85 53.0291 72.5 53.0291C103.15 53.0291 128 73.1691 128 98.0291C128 115.439 115.81 130.539 97.96 138.029Z" fill="#FFD95C"/>
<path d="M131.69 53.029L134.35 41.179C136.38 32.129 136.92 22.759 135.65 13.549C135.24 10.529 134.67 7.86897 133.97 6.11897C132.57 2.55897 130.71 -0.42103 128.8 0.0489697C103.47 6.23897 90.0901 26.279 90.0901 26.279L131.68 53.019L131.69 53.029Z" fill="#FFD95C"/>
<path d="M13.73 53.029L11.07 41.179C9.03999 32.129 8.49999 22.759 9.76999 13.549C10.18 10.529 10.75 7.86902 11.45 6.11902C12.87 2.59902 14.71 -0.380977 16.61 0.0890226C41.94 6.27902 55.32 26.319 55.32 26.319L13.73 53.059V53.029Z" fill="#FFD95C"/>
<path d="M86.49 100.209C89.5289 100.209 91.99 97.7478 91.99 94.709C91.99 91.6701 89.5289 89.209 86.49 89.209C83.4511 89.209 80.99 91.6701 80.99 94.709C80.99 97.7478 83.4511 100.209 86.49 100.209Z" fill="#0B0A0A"/>
<path d="M83.5665 93.8889C84.2598 93.8889 84.8144 93.3342 84.8144 92.641C84.8144 91.9477 84.2598 91.3931 83.5665 91.3931C82.8732 91.3931 82.3186 91.9477 82.3186 92.641C82.3186 93.3342 82.8732 93.8889 83.5665 93.8889Z" fill="#EEEEFF"/>
<path d="M56.5 100.009C59.5389 100.009 62 97.5479 62 94.509C62 91.4702 59.5389 89.009 56.5 89.009C53.4611 89.009 51 91.4702 51 94.509C51 97.5479 53.4611 100.009 56.5 100.009Z" fill="#0B0A0A"/>
<path d="M53.5765 93.6889C54.2698 93.6889 54.8244 93.1343 54.8244 92.441C54.8244 91.7477 54.2698 91.1931 53.5765 91.1931C52.8832 91.1931 52.3286 91.7477 52.3286 92.441C52.3286 93.1343 52.8832 93.6889 53.5765 93.6889Z" fill="#EEEEFF"/>
<path d="M72.44 111.039C64.99 111.039 57.1 109.159 56.77 109.079C56.23 108.949 55.9 108.409 56.03 107.869C56.16 107.329 56.7 107.009 57.24 107.129C57.32 107.149 65.24 109.039 72.44 109.039C79.64 109.039 84.52 107.189 84.57 107.169C85.09 106.969 85.66 107.229 85.86 107.749C86.06 108.269 85.8 108.839 85.28 109.039C85.07 109.119 79.95 111.039 72.43 111.039H72.44Z" fill="#0B0A0A"/>
<path d="M73.3299 101.419C73.2099 101.419 73.0999 101.399 72.9799 101.359C71.0399 100.649 69.6399 101.289 69.5799 101.319C69.0799 101.559 68.4899 101.349 68.2499 100.859C68.0099 100.369 68.2099 99.779 68.6999 99.529C68.7899 99.489 70.8999 98.459 73.6799 99.489C74.1999 99.679 74.4599 100.259 74.2699 100.769C74.1199 101.169 73.7399 101.419 73.3299 101.419Z" fill="#0B0A0A"/>
<path d="M66.4601 81.9689C65.2501 81.9689 64.0301 81.7589 62.8101 81.3289L62.5401 81.2089C54.0501 76.8689 57.5501 61.8489 57.7001 61.2089C57.9801 60.0489 59.1401 59.3389 60.3001 59.6189C61.4601 59.8989 62.1701 61.0589 61.8901 62.2189C61.0801 65.6089 59.9701 74.8789 64.3801 77.3089C66.0601 77.8589 67.6201 77.7689 69.1401 77.0189C67.5301 74.6489 66.7601 71.9189 66.3101 70.2989C65.5001 67.4289 65.9801 64.3089 67.5601 62.1689C68.7801 60.5089 70.5601 59.5689 72.5501 59.5189C74.5201 59.4589 76.3201 60.2889 77.5801 61.8289C79.2601 63.8689 79.8501 66.9389 79.1601 70.0189C78.6701 72.2189 77.4901 74.8089 75.7201 77.0189C76.9701 77.3989 78.4401 77.2889 80.2101 76.6889C86.0901 74.0089 82.2901 61.8089 82.2501 61.6889C81.8801 60.5589 82.5001 59.3489 83.6301 58.9789C84.7601 58.6089 85.9701 59.2189 86.3401 60.3489C86.5601 61.0089 91.5101 76.4589 81.8601 80.6689L81.7001 80.7289C78.3601 81.8789 75.4101 81.8089 72.9201 80.4989C72.7101 80.3889 72.5101 80.2689 72.3101 80.1489C72.0701 80.2989 71.8301 80.4489 71.5801 80.5889C69.9501 81.4889 68.2201 81.9489 66.4501 81.9489L66.4601 81.9689ZM72.7301 63.8289C72.7301 63.8289 72.6901 63.8289 72.6701 63.8289C72.0001 63.8489 71.4701 64.1389 71.0301 64.7389C70.2301 65.8189 70.0101 67.5489 70.4601 69.1489C70.8101 70.3889 71.3901 72.4789 72.4601 74.2189C73.7201 72.6089 74.6101 70.6989 74.9701 69.0889C75.3601 67.3389 75.0901 65.5689 74.2701 64.5689C73.8601 64.0689 73.3601 63.8289 72.7401 63.8289H72.7301Z" fill="#8886FF"/>
</svg>
