<svg width="393" height="1527" viewBox="0 0 393 1527" fill="none" xmlns="http://www.w3.org/2000/svg">
<g clip-path="url(#clip0_1925_9870)">
<path d="M393 0H0V1526.05H393V0Z" fill="url(#paint0_linear_1925_9870)"/>
<path d="M85.45 113.04C84.16 116.4 81.67 119.41 78.22 120.52C78.28 120.88 77.95 123.17 77.83 123.69C77.59 124.64 77.17 125.74 76.65 126.57C78.08 127.95 81.06 130.97 82.08 132.6C82.37 133.06 82.67 133.56 82.34 134.11C82.14 134.45 81.05 134.9 80.7 134.44C79.01 132.3 77.29 130.25 75.44 128.27L74.26 129.59C67.17 135.45 57.95 130.49 53.45 123.95C51.14 120.58 48.74 115.52 48.02 111.47C47.35 107.65 49.4 107.06 52.65 106.73C55.21 106.48 61.41 106.44 63.71 107.39C63.94 107.49 63.78 107.17 63.95 107.08C63.76 106.32 64.46 103.9 64.74 103.09C66.41 98.2901 70.16 94.0301 73.94 90.8201C76.48 88.6601 79.21 85.7701 81.84 89.7501C85.87 95.8301 88.19 105.96 85.45 113.04Z" fill="white"/>
<path d="M78.33 120.24C78.31 120.34 78.27 120.43 78.22 120.52C78.28 120.88 77.95 123.17 77.83 123.69C77.59 124.64 77.17 125.74 76.65 126.57C76.54 126.55 76.43 126.53 76.33 126.49C76.23 126.45 76.14 126.41 76.07 126.35C71.63 122.52 67.59 119.13 62.57 116.01C61.12 115.12 59.52 114.17 58 113.52C57.48 113.3 57.1 113.63 57.58 113.98C63.54 117.71 70.08 122.05 74.89 127.34C75.13 127.6 75.29 127.94 75.44 128.27L74.26 129.59C67.17 135.45 57.95 130.49 53.45 123.95C51.14 120.58 48.74 115.52 48.02 111.47C47.35 107.65 49.4 107.06 52.65 106.73C55.21 106.48 61.41 106.44 63.71 107.39C63.94 107.49 63.78 107.17 63.95 107.08C65.65 107.55 67.47 108.06 69.12 108.86C69.74 109.16 71.66 110.18 72 110.64C72.09 110.77 72.16 110.91 72.17 111.08C72.58 110.94 73.5 111.65 73.5 112.11V112.17C73.6 112.18 73.7 112.19 73.8 112.22C74.59 112.47 76.39 115.07 76.87 115.92C77.34 116.75 78.55 119.43 78.33 120.24Z" fill="#87C67F"/>
<path d="M85.45 113.04C84.16 116.4 81.67 119.41 78.22 120.52C77.65 117.12 76.04 114.48 73.5 112.17V112.11C73.8 108 75.14 102.95 76.59 98.7001C76.71 98.4901 76.85 97.6601 76.37 97.8001C75.95 97.9301 75.34 99.7801 75.18 100.25C74.08 103.67 73.21 107.16 72.4 110.69L72.17 111.08C70.12 109.47 68.35 108.65 65.79 107.84C65.19 107.66 64.58 107.51 63.96 107.43C63.91 107.32 63.97 107.18 63.95 107.08C63.76 106.32 64.46 103.9 64.74 103.09C66.41 98.2901 70.16 94.0301 73.94 90.8201C76.48 88.6601 79.21 85.7701 81.84 89.7501C85.87 95.8301 88.19 105.96 85.45 113.04Z" fill="#71BE6D"/>
<path d="M82.34 134.11C82.14 134.45 81.05 134.9 80.7 134.44C79.01 132.3 77.29 130.25 75.44 128.27C70.41 122.88 64.57 118.63 58.35 114.69C58.01 114.47 56.71 114.04 57.24 113.38C57.58 112.96 58.26 113.36 58.72 113.59C64.53 116.46 71.95 122.04 76.65 126.57C78.08 127.95 81.06 130.97 82.08 132.6C82.37 133.06 82.67 133.56 82.34 134.11Z" fill="#64B961"/>
<path d="M72.17 111.08C72.47 109.27 72.9 107.46 73.36 105.68C73.87 103.71 74.54 101.22 75.25 99.34C75.42 98.9 75.92 97.44 76.46 97.58C76.96 97.71 77 97.9 76.92 98.35C76.73 99.32 76.22 100.41 75.95 101.38C75.01 104.76 74.08 108.46 73.67 111.94C73.65 112.1 73.91 112.22 73.5 112.18C73 111.73 72.68 111.49 72.17 111.09V111.08Z" fill="#54A653"/>
<path d="M363.7 454.89C362.41 458.25 359.92 461.26 356.47 462.37C356.53 462.73 356.2 465.02 356.08 465.54C355.84 466.49 355.42 467.59 354.9 468.42C356.33 469.8 359.31 472.82 360.33 474.45C360.62 474.91 360.92 475.41 360.59 475.96C360.39 476.3 359.3 476.75 358.95 476.29C357.26 474.15 355.54 472.1 353.69 470.12L352.51 471.44C345.42 477.3 336.2 472.34 331.7 465.8C329.39 462.43 326.99 457.37 326.27 453.32C325.6 449.5 327.65 448.91 330.9 448.58C333.46 448.33 339.66 448.29 341.96 449.24C342.19 449.34 342.03 449.02 342.2 448.93C342.01 448.17 342.71 445.75 342.99 444.94C344.66 440.14 348.41 435.88 352.19 432.67C354.73 430.51 357.46 427.62 360.09 431.6C364.12 437.68 366.44 447.81 363.7 454.89Z" fill="white"/>
<path d="M356.58 462.09C356.56 462.19 356.52 462.28 356.47 462.37C356.53 462.73 356.2 465.02 356.08 465.54C355.84 466.49 355.42 467.59 354.9 468.42C354.79 468.4 354.68 468.38 354.58 468.34C354.48 468.3 354.39 468.26 354.32 468.2C349.88 464.37 345.84 460.98 340.82 457.86C339.37 456.97 337.77 456.02 336.25 455.37C335.73 455.15 335.35 455.48 335.83 455.83C341.79 459.56 348.33 463.9 353.14 469.19C353.38 469.45 353.54 469.79 353.69 470.12L352.51 471.44C345.42 477.3 336.2 472.34 331.7 465.8C329.39 462.43 326.99 457.37 326.27 453.32C325.6 449.5 327.65 448.91 330.9 448.58C333.46 448.33 339.66 448.29 341.96 449.24C342.19 449.34 342.03 449.02 342.2 448.93C343.9 449.4 345.72 449.91 347.37 450.71C347.99 451.01 349.91 452.03 350.25 452.49C350.34 452.62 350.41 452.76 350.42 452.93C350.83 452.79 351.75 453.5 351.75 453.96V454.02C351.85 454.03 351.95 454.04 352.05 454.07C352.84 454.32 354.64 456.92 355.12 457.77C355.59 458.6 356.8 461.28 356.58 462.09Z" fill="#87C67F"/>
<path d="M363.7 454.89C362.41 458.25 359.92 461.26 356.47 462.37C355.9 458.97 354.29 456.33 351.75 454.02V453.96C352.05 449.85 353.39 444.8 354.84 440.55C354.96 440.34 355.1 439.51 354.62 439.65C354.2 439.78 353.59 441.63 353.43 442.1C352.33 445.52 351.46 449.01 350.65 452.54L350.42 452.93C348.37 451.32 346.6 450.5 344.04 449.69C343.44 449.51 342.83 449.36 342.21 449.28C342.16 449.17 342.22 449.03 342.2 448.93C342.01 448.17 342.71 445.75 342.99 444.94C344.66 440.14 348.41 435.88 352.19 432.67C354.73 430.51 357.46 427.62 360.09 431.6C364.12 437.68 366.44 447.81 363.7 454.89Z" fill="#71BE6D"/>
<path d="M360.59 475.96C360.39 476.3 359.3 476.75 358.95 476.29C357.26 474.15 355.54 472.1 353.69 470.12C348.66 464.73 342.82 460.48 336.6 456.54C336.26 456.32 334.96 455.89 335.49 455.23C335.83 454.81 336.51 455.21 336.97 455.44C342.78 458.31 350.2 463.89 354.9 468.42C356.33 469.8 359.31 472.82 360.33 474.45C360.62 474.91 360.92 475.41 360.59 475.96Z" fill="#64B961"/>
<path d="M350.43 452.93C350.73 451.12 351.16 449.31 351.62 447.53C352.13 445.56 352.8 443.07 353.51 441.19C353.68 440.75 354.18 439.29 354.72 439.43C355.22 439.56 355.26 439.75 355.18 440.2C354.99 441.17 354.48 442.26 354.21 443.23C353.27 446.61 352.34 450.31 351.93 453.79C351.91 453.95 352.17 454.07 351.76 454.03C351.26 453.58 350.94 453.34 350.43 452.94V452.93Z" fill="#54A653"/>
<path d="M96.54 447.83C95.25 451.19 92.76 454.2 89.31 455.31C89.37 455.67 89.04 457.96 88.92 458.48C88.68 459.43 88.26 460.53 87.74 461.36C89.17 462.74 92.15 465.76 93.17 467.39C93.46 467.85 93.76 468.35 93.43 468.9C93.23 469.24 92.14 469.69 91.79 469.23C90.1 467.09 88.38 465.04 86.53 463.06L85.35 464.38C78.26 470.24 69.04 465.28 64.54 458.74C62.23 455.37 59.83 450.31 59.11 446.26C58.44 442.44 60.49 441.85 63.74 441.52C66.3 441.27 72.5 441.23 74.8 442.18C75.03 442.28 74.87 441.96 75.04 441.87C74.85 441.11 75.55 438.69 75.83 437.88C77.5 433.08 81.25 428.82 85.03 425.61C87.57 423.45 90.3 420.56 92.93 424.54C96.96 430.62 99.28 440.75 96.54 447.83Z" fill="white"/>
<path d="M89.42 455.03C89.4 455.13 89.36 455.22 89.31 455.31C89.37 455.67 89.04 457.96 88.92 458.48C88.68 459.43 88.26 460.53 87.74 461.36C87.63 461.34 87.52 461.32 87.42 461.28C87.32 461.24 87.23 461.2 87.16 461.14C82.72 457.31 78.68 453.92 73.66 450.8C72.21 449.91 70.61 448.96 69.09 448.31C68.57 448.09 68.19 448.42 68.67 448.77C74.63 452.5 81.17 456.84 85.98 462.13C86.22 462.39 86.38 462.73 86.53 463.06L85.35 464.38C78.26 470.24 69.04 465.28 64.54 458.74C62.23 455.37 59.83 450.31 59.11 446.26C58.44 442.44 60.49 441.85 63.74 441.52C66.3 441.27 72.5 441.23 74.8 442.18C75.03 442.28 74.87 441.96 75.04 441.87C76.74 442.34 78.56 442.85 80.21 443.65C80.83 443.95 82.75 444.97 83.09 445.43C83.18 445.56 83.25 445.7 83.26 445.87C83.67 445.73 84.59 446.44 84.59 446.9V446.96C84.69 446.97 84.79 446.98 84.89 447.01C85.68 447.26 87.48 449.86 87.96 450.71C88.43 451.54 89.64 454.22 89.42 455.03Z" fill="#87C67F"/>
<path d="M96.54 447.83C95.25 451.19 92.76 454.2 89.31 455.31C88.74 451.91 87.13 449.27 84.59 446.96V446.9C84.89 442.79 86.23 437.74 87.68 433.49C87.8 433.28 87.94 432.45 87.46 432.59C87.04 432.72 86.43 434.57 86.27 435.04C85.17 438.46 84.3 441.95 83.49 445.48L83.26 445.87C81.21 444.26 79.44 443.44 76.88 442.63C76.28 442.45 75.67 442.3 75.05 442.22C75 442.11 75.06 441.97 75.04 441.87C74.85 441.11 75.55 438.69 75.83 437.88C77.5 433.08 81.25 428.82 85.03 425.61C87.57 423.45 90.3 420.56 92.93 424.54C96.96 430.62 99.28 440.75 96.54 447.83Z" fill="#71BE6D"/>
<path d="M93.43 468.9C93.23 469.24 92.14 469.69 91.79 469.23C90.1 467.09 88.38 465.04 86.53 463.06C81.5 457.67 75.66 453.42 69.44 449.48C69.1 449.26 67.8 448.83 68.33 448.17C68.67 447.75 69.35 448.15 69.81 448.38C75.62 451.25 83.04 456.83 87.74 461.36C89.17 462.74 92.15 465.76 93.17 467.39C93.46 467.85 93.76 468.35 93.43 468.9Z" fill="#64B961"/>
<path d="M83.26 445.87C83.56 444.06 83.99 442.25 84.45 440.47C84.96 438.5 85.63 436.01 86.34 434.13C86.51 433.69 87.01 432.23 87.55 432.37C88.05 432.5 88.09 432.69 88.01 433.14C87.82 434.11 87.31 435.2 87.04 436.17C86.1 439.55 85.17 443.25 84.76 446.73C84.74 446.89 85 447.01 84.59 446.97C84.09 446.52 83.77 446.28 83.26 445.88V445.87Z" fill="#54A653"/>
<path d="M121.1 530.32C122.39 533.68 124.88 536.69 128.33 537.8C128.27 538.16 128.6 540.45 128.72 540.97C128.96 541.92 129.38 543.02 129.9 543.85C128.47 545.23 125.49 548.25 124.47 549.88C124.18 550.34 123.88 550.84 124.21 551.39C124.41 551.73 125.5 552.18 125.85 551.72C127.54 549.58 129.26 547.53 131.11 545.55L132.29 546.87C139.38 552.73 148.6 547.77 153.1 541.23C155.41 537.86 157.81 532.8 158.53 528.75C159.2 524.93 157.15 524.34 153.9 524.01C151.34 523.76 145.14 523.72 142.84 524.67C142.61 524.77 142.77 524.45 142.6 524.36C142.79 523.6 142.09 521.18 141.81 520.37C140.14 515.57 136.39 511.31 132.61 508.1C130.07 505.94 127.34 503.05 124.71 507.03C120.68 513.11 118.36 523.24 121.1 530.32Z" fill="white"/>
<path d="M128.22 537.52C128.24 537.62 128.28 537.71 128.33 537.8C128.27 538.16 128.6 540.45 128.72 540.97C128.96 541.92 129.38 543.02 129.9 543.85C130.01 543.83 130.12 543.81 130.22 543.77C130.32 543.73 130.41 543.69 130.48 543.63C134.92 539.8 138.96 536.41 143.98 533.29C145.43 532.4 147.03 531.45 148.55 530.8C149.07 530.58 149.45 530.91 148.97 531.26C143.01 534.99 136.47 539.33 131.66 544.62C131.42 544.88 131.26 545.22 131.11 545.55L132.29 546.87C139.38 552.73 148.6 547.77 153.1 541.23C155.41 537.86 157.81 532.8 158.53 528.75C159.2 524.93 157.15 524.34 153.9 524.01C151.34 523.76 145.14 523.72 142.84 524.67C142.61 524.77 142.77 524.45 142.6 524.36C140.9 524.83 139.08 525.34 137.43 526.14C136.81 526.44 134.89 527.46 134.55 527.92C134.46 528.05 134.39 528.19 134.38 528.36C133.97 528.22 133.05 528.93 133.05 529.39V529.45C132.95 529.46 132.85 529.47 132.75 529.5C131.96 529.75 130.16 532.35 129.68 533.2C129.21 534.03 128 536.71 128.22 537.52Z" fill="#87C67F"/>
<path d="M121.1 530.32C122.39 533.68 124.88 536.69 128.33 537.8C128.9 534.4 130.51 531.76 133.05 529.45V529.39C132.75 525.28 131.41 520.23 129.96 515.98C129.84 515.77 129.7 514.94 130.18 515.08C130.6 515.21 131.21 517.06 131.37 517.53C132.47 520.95 133.34 524.44 134.15 527.97L134.38 528.36C136.43 526.75 138.2 525.93 140.76 525.12C141.36 524.94 141.97 524.79 142.59 524.71C142.64 524.6 142.58 524.46 142.6 524.36C142.79 523.6 142.09 521.18 141.81 520.37C140.14 515.57 136.39 511.31 132.61 508.1C130.07 505.94 127.34 503.05 124.71 507.03C120.68 513.11 118.36 523.24 121.1 530.32Z" fill="#71BE6D"/>
<path d="M124.21 551.39C124.41 551.73 125.5 552.18 125.85 551.72C127.54 549.58 129.26 547.53 131.11 545.55C136.14 540.16 141.98 535.91 148.2 531.97C148.54 531.75 149.84 531.32 149.31 530.66C148.97 530.24 148.29 530.64 147.83 530.87C142.02 533.74 134.6 539.32 129.9 543.85C128.47 545.23 125.49 548.25 124.47 549.88C124.18 550.34 123.88 550.84 124.21 551.39Z" fill="#64B961"/>
<path d="M134.37 528.36C134.07 526.55 133.64 524.74 133.18 522.96C132.67 520.99 132 518.5 131.29 516.62C131.12 516.18 130.62 514.72 130.08 514.86C129.58 514.99 129.54 515.18 129.62 515.63C129.81 516.6 130.32 517.69 130.59 518.66C131.53 522.04 132.46 525.74 132.87 529.22C132.89 529.38 132.63 529.5 133.04 529.46C133.54 529.01 133.86 528.77 134.37 528.37V528.36Z" fill="#54A653"/>
<path d="M101.44 1024.4C100.15 1027.76 97.66 1030.77 94.21 1031.88C94.27 1032.24 93.94 1034.53 93.82 1035.05C93.58 1036 93.16 1037.1 92.64 1037.93C94.07 1039.31 97.05 1042.33 98.07 1043.96C98.36 1044.42 98.66 1044.92 98.33 1045.47C98.13 1045.81 97.04 1046.26 96.69 1045.8C95 1043.66 93.28 1041.61 91.43 1039.63L90.25 1040.95C83.16 1046.81 73.94 1041.85 69.44 1035.31C67.13 1031.94 64.73 1026.88 64.01 1022.83C63.34 1019.01 65.39 1018.42 68.64 1018.09C71.2 1017.84 77.4 1017.8 79.7 1018.75C79.93 1018.85 79.77 1018.53 79.94 1018.44C79.75 1017.68 80.45 1015.26 80.73 1014.45C82.4 1009.65 86.15 1005.39 89.93 1002.18C92.47 1000.02 95.2 997.13 97.83 1001.11C101.86 1007.19 104.18 1017.32 101.44 1024.4Z" fill="white"/>
<path d="M94.32 1031.6C94.3 1031.7 94.26 1031.79 94.21 1031.88C94.27 1032.24 93.94 1034.53 93.82 1035.05C93.58 1036 93.16 1037.1 92.64 1037.93C92.53 1037.91 92.42 1037.89 92.32 1037.85C92.22 1037.81 92.13 1037.77 92.06 1037.71C87.62 1033.88 83.58 1030.49 78.56 1027.37C77.11 1026.48 75.51 1025.53 73.99 1024.88C73.47 1024.66 73.09 1024.99 73.57 1025.34C79.53 1029.07 86.07 1033.41 90.88 1038.7C91.12 1038.96 91.28 1039.3 91.43 1039.63L90.25 1040.95C83.16 1046.81 73.94 1041.85 69.44 1035.31C67.13 1031.94 64.73 1026.88 64.01 1022.83C63.34 1019.01 65.39 1018.42 68.64 1018.09C71.2 1017.84 77.4 1017.8 79.7 1018.75C79.93 1018.85 79.77 1018.53 79.94 1018.44C81.64 1018.91 83.46 1019.42 85.11 1020.22C85.73 1020.52 87.65 1021.54 87.99 1022C88.08 1022.13 88.15 1022.27 88.16 1022.44C88.57 1022.3 89.49 1023.01 89.49 1023.47V1023.53C89.59 1023.54 89.69 1023.55 89.79 1023.58C90.58 1023.83 92.38 1026.43 92.86 1027.28C93.33 1028.11 94.54 1030.79 94.32 1031.6Z" fill="#87C67F"/>
<path d="M101.44 1024.4C100.15 1027.76 97.66 1030.77 94.21 1031.88C93.64 1028.48 92.03 1025.84 89.49 1023.53V1023.47C89.79 1019.36 91.13 1014.31 92.58 1010.06C92.7 1009.85 92.84 1009.02 92.36 1009.16C91.94 1009.29 91.33 1011.14 91.17 1011.61C90.07 1015.03 89.2 1018.52 88.39 1022.05L88.16 1022.44C86.11 1020.83 84.34 1020.01 81.78 1019.2C81.18 1019.02 80.57 1018.87 79.95 1018.79C79.9 1018.68 79.96 1018.54 79.94 1018.44C79.75 1017.68 80.45 1015.26 80.73 1014.45C82.4 1009.65 86.15 1005.39 89.93 1002.18C92.47 1000.02 95.2 997.13 97.83 1001.11C101.86 1007.19 104.18 1017.32 101.44 1024.4Z" fill="#71BE6D"/>
<path d="M98.33 1045.47C98.13 1045.81 97.04 1046.26 96.69 1045.8C95 1043.66 93.28 1041.61 91.43 1039.63C86.4 1034.24 80.56 1029.99 74.34 1026.05C74 1025.83 72.7 1025.4 73.23 1024.74C73.57 1024.32 74.25 1024.72 74.71 1024.95C80.52 1027.82 87.94 1033.4 92.64 1037.93C94.07 1039.31 97.05 1042.33 98.07 1043.96C98.36 1044.42 98.66 1044.92 98.33 1045.47Z" fill="#64B961"/>
<path d="M88.16 1022.44C88.46 1020.63 88.89 1018.82 89.35 1017.04C89.86 1015.07 90.53 1012.58 91.24 1010.7C91.41 1010.26 91.91 1008.8 92.45 1008.94C92.95 1009.07 92.99 1009.26 92.91 1009.71C92.72 1010.68 92.21 1011.77 91.94 1012.74C91 1016.12 90.07 1019.82 89.66 1023.3C89.64 1023.46 89.9 1023.58 89.49 1023.54C88.99 1023.09 88.67 1022.85 88.16 1022.45V1022.44Z" fill="#54A653"/>
<path d="M280.14 738.61C278.85 741.97 276.36 744.98 272.91 746.09C272.97 746.45 272.64 748.74 272.52 749.26C272.28 750.21 271.86 751.31 271.34 752.14C272.77 753.52 275.75 756.54 276.77 758.17C277.06 758.63 277.36 759.13 277.03 759.68C276.83 760.02 275.74 760.47 275.39 760.01C273.7 757.87 271.98 755.82 270.13 753.84L268.95 755.16C261.86 761.02 252.64 756.06 248.14 749.52C245.83 746.15 243.43 741.09 242.71 737.04C242.04 733.22 244.09 732.63 247.34 732.3C249.9 732.05 256.1 732.01 258.4 732.96C258.63 733.06 258.47 732.74 258.64 732.65C258.45 731.89 259.15 729.47 259.43 728.66C261.1 723.86 264.85 719.6 268.63 716.39C271.17 714.23 273.9 711.34 276.53 715.32C280.56 721.4 282.88 731.53 280.14 738.61Z" fill="white"/>
<path d="M273.02 745.81C273 745.91 272.96 746 272.91 746.09C272.97 746.45 272.64 748.74 272.52 749.26C272.28 750.21 271.86 751.31 271.34 752.14C271.23 752.12 271.12 752.1 271.02 752.06C270.92 752.02 270.83 751.98 270.76 751.92C266.32 748.09 262.28 744.7 257.26 741.58C255.81 740.69 254.21 739.74 252.69 739.09C252.17 738.87 251.79 739.2 252.27 739.55C258.23 743.28 264.77 747.62 269.58 752.91C269.82 753.17 269.98 753.51 270.13 753.84L268.95 755.16C261.86 761.02 252.64 756.06 248.14 749.52C245.83 746.15 243.43 741.09 242.71 737.04C242.04 733.22 244.09 732.63 247.34 732.3C249.9 732.05 256.1 732.01 258.4 732.96C258.63 733.06 258.47 732.74 258.64 732.65C260.34 733.12 262.16 733.63 263.81 734.43C264.43 734.73 266.35 735.75 266.69 736.21C266.78 736.34 266.85 736.48 266.86 736.65C267.27 736.51 268.19 737.22 268.19 737.68V737.74C268.29 737.75 268.39 737.76 268.49 737.79C269.28 738.04 271.08 740.64 271.56 741.49C272.03 742.32 273.24 745 273.02 745.81Z" fill="#87C67F"/>
<path d="M280.14 738.61C278.85 741.97 276.36 744.98 272.91 746.09C272.34 742.69 270.73 740.05 268.19 737.74V737.68C268.49 733.57 269.83 728.52 271.28 724.27C271.4 724.06 271.54 723.23 271.06 723.37C270.64 723.5 270.03 725.35 269.87 725.82C268.77 729.24 267.9 732.73 267.09 736.26L266.86 736.65C264.81 735.04 263.04 734.22 260.48 733.41C259.88 733.23 259.27 733.08 258.65 733C258.6 732.89 258.66 732.75 258.64 732.65C258.45 731.89 259.15 729.47 259.43 728.66C261.1 723.86 264.85 719.6 268.63 716.39C271.17 714.23 273.9 711.34 276.53 715.32C280.56 721.4 282.88 731.53 280.14 738.61Z" fill="#71BE6D"/>
<path d="M277.03 759.68C276.83 760.02 275.74 760.47 275.39 760.01C273.7 757.87 271.98 755.82 270.13 753.84C265.1 748.45 259.26 744.2 253.04 740.26C252.7 740.04 251.4 739.61 251.93 738.95C252.27 738.53 252.95 738.93 253.41 739.16C259.22 742.03 266.64 747.61 271.34 752.14C272.77 753.52 275.75 756.54 276.77 758.17C277.06 758.63 277.36 759.13 277.03 759.68Z" fill="#64B961"/>
<path d="M266.86 736.65C267.16 734.84 267.59 733.03 268.05 731.25C268.56 729.28 269.23 726.79 269.94 724.91C270.11 724.47 270.61 723.01 271.15 723.15C271.65 723.28 271.69 723.47 271.61 723.92C271.42 724.89 270.91 725.98 270.64 726.95C269.7 730.33 268.77 734.03 268.36 737.51C268.34 737.67 268.6 737.79 268.19 737.75C267.69 737.3 267.37 737.06 266.86 736.66V736.65Z" fill="#54A653"/>
<path d="M148.64 1064.78C147.35 1068.14 144.86 1071.15 141.41 1072.26C141.47 1072.62 141.14 1074.91 141.02 1075.43C140.78 1076.38 140.36 1077.48 139.84 1078.31C141.27 1079.69 144.25 1082.71 145.27 1084.34C145.56 1084.8 145.86 1085.3 145.53 1085.85C145.33 1086.19 144.24 1086.64 143.89 1086.18C142.2 1084.04 140.48 1081.99 138.63 1080.01L137.45 1081.33C130.36 1087.19 121.14 1082.23 116.64 1075.69C114.33 1072.32 111.93 1067.26 111.21 1063.21C110.54 1059.39 112.59 1058.8 115.84 1058.47C118.4 1058.22 124.6 1058.18 126.9 1059.13C127.13 1059.23 126.97 1058.91 127.14 1058.82C126.95 1058.06 127.65 1055.64 127.93 1054.83C129.6 1050.03 133.35 1045.77 137.13 1042.56C139.67 1040.4 142.4 1037.51 145.03 1041.49C149.06 1047.57 151.38 1057.7 148.64 1064.78Z" fill="white"/>
<path d="M141.52 1071.98C141.5 1072.08 141.46 1072.17 141.41 1072.26C141.47 1072.62 141.14 1074.91 141.02 1075.43C140.78 1076.38 140.36 1077.48 139.84 1078.31C139.73 1078.29 139.62 1078.27 139.52 1078.23C139.42 1078.19 139.33 1078.15 139.26 1078.09C134.82 1074.26 130.78 1070.87 125.76 1067.75C124.31 1066.86 122.71 1065.91 121.19 1065.26C120.67 1065.04 120.29 1065.37 120.77 1065.72C126.73 1069.45 133.27 1073.79 138.08 1079.08C138.32 1079.34 138.48 1079.68 138.63 1080.01L137.45 1081.33C130.36 1087.19 121.14 1082.23 116.64 1075.69C114.33 1072.32 111.93 1067.26 111.21 1063.21C110.54 1059.39 112.59 1058.8 115.84 1058.47C118.4 1058.22 124.6 1058.18 126.9 1059.13C127.13 1059.23 126.97 1058.91 127.14 1058.82C128.84 1059.29 130.66 1059.8 132.31 1060.6C132.93 1060.9 134.85 1061.92 135.19 1062.38C135.28 1062.51 135.35 1062.65 135.36 1062.82C135.77 1062.68 136.69 1063.39 136.69 1063.85V1063.91C136.79 1063.92 136.89 1063.93 136.99 1063.96C137.78 1064.21 139.58 1066.81 140.06 1067.66C140.53 1068.49 141.74 1071.17 141.52 1071.98Z" fill="#87C67F"/>
<path d="M148.64 1064.78C147.35 1068.14 144.86 1071.15 141.41 1072.26C140.84 1068.86 139.23 1066.22 136.69 1063.91V1063.85C136.99 1059.74 138.33 1054.69 139.78 1050.44C139.9 1050.23 140.04 1049.4 139.56 1049.54C139.14 1049.67 138.53 1051.52 138.37 1051.99C137.27 1055.41 136.4 1058.9 135.59 1062.43L135.36 1062.82C133.31 1061.21 131.54 1060.39 128.98 1059.58C128.38 1059.4 127.77 1059.25 127.15 1059.17C127.1 1059.06 127.16 1058.92 127.14 1058.82C126.95 1058.06 127.65 1055.64 127.93 1054.83C129.6 1050.03 133.35 1045.77 137.13 1042.56C139.67 1040.4 142.4 1037.51 145.03 1041.49C149.06 1047.57 151.38 1057.7 148.64 1064.78Z" fill="#71BE6D"/>
<path d="M145.53 1085.85C145.33 1086.19 144.24 1086.64 143.89 1086.18C142.2 1084.04 140.48 1081.99 138.63 1080.01C133.6 1074.62 127.76 1070.37 121.54 1066.43C121.2 1066.21 119.9 1065.78 120.43 1065.12C120.77 1064.7 121.45 1065.1 121.91 1065.33C127.72 1068.2 135.14 1073.78 139.84 1078.31C141.27 1079.69 144.25 1082.71 145.27 1084.34C145.56 1084.8 145.86 1085.3 145.53 1085.85Z" fill="#64B961"/>
<path d="M135.36 1062.82C135.66 1061.01 136.09 1059.2 136.55 1057.42C137.06 1055.45 137.73 1052.96 138.44 1051.08C138.61 1050.64 139.11 1049.18 139.65 1049.32C140.15 1049.45 140.19 1049.64 140.11 1050.09C139.92 1051.06 139.41 1052.15 139.14 1053.12C138.2 1056.5 137.27 1060.2 136.86 1063.68C136.84 1063.84 137.1 1063.96 136.69 1063.92C136.19 1063.47 135.87 1063.23 135.36 1062.83V1062.82Z" fill="#54A653"/>
<path d="M351.63 1225.32C350.34 1228.68 347.85 1231.69 344.4 1232.8C344.46 1233.16 344.13 1235.45 344.01 1235.97C343.77 1236.92 343.35 1238.02 342.83 1238.85C344.26 1240.23 347.24 1243.25 348.26 1244.88C348.55 1245.34 348.85 1245.84 348.52 1246.39C348.32 1246.73 347.23 1247.18 346.88 1246.72C345.19 1244.58 343.47 1242.53 341.62 1240.55L340.44 1241.87C333.35 1247.73 324.13 1242.77 319.63 1236.23C317.32 1232.86 314.92 1227.8 314.2 1223.75C313.53 1219.93 315.58 1219.34 318.83 1219.01C321.39 1218.76 327.59 1218.72 329.89 1219.67C330.12 1219.77 329.96 1219.45 330.13 1219.36C329.94 1218.6 330.64 1216.18 330.92 1215.37C332.59 1210.57 336.34 1206.31 340.12 1203.1C342.66 1200.94 345.39 1198.05 348.02 1202.03C352.05 1208.11 354.37 1218.24 351.63 1225.32Z" fill="white"/>
<path d="M344.51 1232.52C344.49 1232.62 344.45 1232.71 344.4 1232.8C344.46 1233.16 344.13 1235.45 344.01 1235.97C343.77 1236.92 343.35 1238.02 342.83 1238.85C342.72 1238.83 342.61 1238.81 342.51 1238.77C342.41 1238.73 342.32 1238.69 342.25 1238.63C337.81 1234.8 333.77 1231.41 328.75 1228.29C327.3 1227.4 325.7 1226.45 324.18 1225.8C323.66 1225.58 323.28 1225.91 323.76 1226.26C329.72 1229.99 336.26 1234.33 341.07 1239.62C341.31 1239.88 341.47 1240.22 341.62 1240.55L340.44 1241.87C333.35 1247.73 324.13 1242.77 319.63 1236.23C317.32 1232.86 314.92 1227.8 314.2 1223.75C313.53 1219.93 315.58 1219.34 318.83 1219.01C321.39 1218.76 327.59 1218.72 329.89 1219.67C330.12 1219.77 329.96 1219.45 330.13 1219.36C331.83 1219.83 333.65 1220.34 335.3 1221.14C335.92 1221.44 337.84 1222.46 338.18 1222.92C338.27 1223.05 338.34 1223.19 338.35 1223.36C338.76 1223.22 339.68 1223.93 339.68 1224.39V1224.45C339.78 1224.46 339.88 1224.47 339.98 1224.5C340.77 1224.75 342.57 1227.35 343.05 1228.2C343.52 1229.03 344.73 1231.71 344.51 1232.52Z" fill="#87C67F"/>
<path d="M351.63 1225.32C350.34 1228.68 347.85 1231.69 344.4 1232.8C343.83 1229.4 342.22 1226.76 339.68 1224.45V1224.39C339.98 1220.28 341.32 1215.23 342.77 1210.98C342.89 1210.77 343.03 1209.94 342.55 1210.08C342.13 1210.21 341.52 1212.06 341.36 1212.53C340.26 1215.95 339.39 1219.44 338.58 1222.97L338.35 1223.36C336.3 1221.75 334.53 1220.93 331.97 1220.12C331.37 1219.94 330.76 1219.79 330.14 1219.71C330.09 1219.6 330.15 1219.46 330.13 1219.36C329.94 1218.6 330.64 1216.18 330.92 1215.37C332.59 1210.57 336.34 1206.31 340.12 1203.1C342.66 1200.94 345.39 1198.05 348.02 1202.03C352.05 1208.11 354.37 1218.24 351.63 1225.32Z" fill="#71BE6D"/>
<path d="M348.52 1246.39C348.32 1246.73 347.23 1247.18 346.88 1246.72C345.19 1244.58 343.47 1242.53 341.62 1240.55C336.59 1235.16 330.75 1230.91 324.53 1226.97C324.19 1226.75 322.89 1226.32 323.42 1225.66C323.76 1225.24 324.44 1225.64 324.9 1225.87C330.71 1228.74 338.13 1234.32 342.83 1238.85C344.26 1240.23 347.24 1243.25 348.26 1244.88C348.55 1245.34 348.85 1245.84 348.52 1246.39Z" fill="#64B961"/>
<path d="M338.35 1223.36C338.65 1221.55 339.08 1219.74 339.54 1217.96C340.05 1215.99 340.72 1213.5 341.43 1211.62C341.6 1211.18 342.1 1209.72 342.64 1209.86C343.14 1209.99 343.18 1210.18 343.1 1210.63C342.91 1211.6 342.4 1212.69 342.13 1213.66C341.19 1217.04 340.26 1220.74 339.85 1224.22C339.83 1224.38 340.09 1224.5 339.68 1224.46C339.18 1224.01 338.86 1223.77 338.35 1223.37V1223.36Z" fill="#54A653"/>
<path d="M70.48 1322.89C69.19 1326.25 66.7 1329.26 63.25 1330.37C63.31 1330.73 62.98 1333.02 62.86 1333.54C62.62 1334.49 62.2 1335.59 61.68 1336.42C63.11 1337.8 66.09 1340.82 67.11 1342.45C67.4 1342.91 67.7 1343.41 67.37 1343.96C67.17 1344.3 66.08 1344.75 65.73 1344.29C64.04 1342.15 62.32 1340.1 60.47 1338.12L59.29 1339.44C52.2 1345.3 42.98 1340.34 38.48 1333.8C36.17 1330.43 33.77 1325.37 33.05 1321.32C32.38 1317.5 34.43 1316.91 37.68 1316.58C40.24 1316.33 46.44 1316.29 48.74 1317.24C48.97 1317.34 48.81 1317.02 48.98 1316.93C48.79 1316.17 49.49 1313.75 49.77 1312.94C51.44 1308.14 55.19 1303.88 58.97 1300.67C61.51 1298.51 64.24 1295.62 66.87 1299.6C70.9 1305.68 73.22 1315.81 70.48 1322.89Z" fill="white"/>
<path d="M63.36 1330.09C63.34 1330.19 63.3 1330.28 63.25 1330.37C63.31 1330.73 62.98 1333.02 62.86 1333.54C62.62 1334.49 62.2 1335.59 61.68 1336.42C61.57 1336.4 61.46 1336.38 61.36 1336.34C61.26 1336.3 61.17 1336.26 61.1 1336.2C56.66 1332.37 52.62 1328.98 47.6 1325.86C46.15 1324.97 44.55 1324.02 43.03 1323.37C42.51 1323.15 42.13 1323.48 42.61 1323.83C48.57 1327.56 55.11 1331.9 59.92 1337.19C60.16 1337.45 60.32 1337.79 60.47 1338.12L59.29 1339.44C52.2 1345.3 42.98 1340.34 38.48 1333.8C36.17 1330.43 33.77 1325.37 33.05 1321.32C32.38 1317.5 34.43 1316.91 37.68 1316.58C40.24 1316.33 46.44 1316.29 48.74 1317.24C48.97 1317.34 48.81 1317.02 48.98 1316.93C50.68 1317.4 52.5 1317.91 54.15 1318.71C54.77 1319.01 56.69 1320.03 57.03 1320.49C57.12 1320.62 57.19 1320.76 57.2 1320.93C57.61 1320.79 58.53 1321.5 58.53 1321.96V1322.02C58.63 1322.03 58.73 1322.04 58.83 1322.07C59.62 1322.32 61.42 1324.92 61.9 1325.77C62.37 1326.6 63.58 1329.28 63.36 1330.09Z" fill="#87C67F"/>
<path d="M70.48 1322.89C69.19 1326.25 66.7 1329.26 63.25 1330.37C62.68 1326.97 61.07 1324.33 58.53 1322.02V1321.96C58.83 1317.85 60.17 1312.8 61.62 1308.55C61.74 1308.34 61.88 1307.51 61.4 1307.65C60.98 1307.78 60.37 1309.63 60.21 1310.1C59.11 1313.52 58.24 1317.01 57.43 1320.54L57.2 1320.93C55.15 1319.32 53.38 1318.5 50.82 1317.69C50.22 1317.51 49.61 1317.36 48.99 1317.28C48.94 1317.17 49 1317.03 48.98 1316.93C48.79 1316.17 49.49 1313.75 49.77 1312.94C51.44 1308.14 55.19 1303.88 58.97 1300.67C61.51 1298.51 64.24 1295.62 66.87 1299.6C70.9 1305.68 73.22 1315.81 70.48 1322.89Z" fill="#71BE6D"/>
<path d="M67.37 1343.96C67.17 1344.3 66.08 1344.75 65.73 1344.29C64.04 1342.15 62.32 1340.1 60.47 1338.12C55.44 1332.73 49.6 1328.48 43.38 1324.54C43.04 1324.32 41.74 1323.89 42.27 1323.23C42.61 1322.81 43.29 1323.21 43.75 1323.44C49.56 1326.31 56.98 1331.89 61.68 1336.42C63.11 1337.8 66.09 1340.82 67.11 1342.45C67.4 1342.91 67.7 1343.41 67.37 1343.96Z" fill="#64B961"/>
<path d="M57.2 1320.93C57.5 1319.12 57.93 1317.31 58.39 1315.53C58.9 1313.56 59.57 1311.07 60.28 1309.19C60.45 1308.75 60.95 1307.29 61.49 1307.43C61.99 1307.56 62.03 1307.75 61.95 1308.2C61.76 1309.17 61.25 1310.26 60.98 1311.23C60.04 1314.61 59.11 1318.31 58.7 1321.79C58.68 1321.95 58.94 1322.07 58.53 1322.03C58.03 1321.58 57.71 1321.34 57.2 1320.94V1320.93Z" fill="#54A653"/>
<path d="M100.37 1202.91C99.21 1203.34 97.85 1204.29 97.06 1205.27C95.5 1200.75 93.34 1196.29 90.76 1192.26C86.55 1185.69 80.32 1179.02 72.54 1176.91C53.18 1171.66 40.47 1193.16 57.36 1205.97C67.48 1213.63 82.25 1214.89 94.54 1215.36C92.94 1216.97 91.25 1218.48 89.66 1220.09C89.39 1219.91 89.1 1219.93 88.8 1219.92C79.89 1219.61 66.3 1220.15 58.81 1225.41C55.89 1227.46 52.6 1231.72 56.77 1234.46C62.82 1238.44 76.48 1232.29 81.78 1228.44C81.32 1229.38 79.64 1231.12 80.36 1232.22C76.01 1234.5 71.4 1236.29 66.62 1237.47L61.92 1238.37H58.14C57.22 1238.13 56.27 1238.06 55.37 1237.74C50.51 1236.05 50.5 1231.02 52.28 1226.91C53.13 1224.95 54.43 1223.44 55.93 1221.98C57.13 1222.29 58.68 1221.96 59.93 1221.8C65.28 1221.1 70.54 1219.78 75.63 1218.03C75.61 1217.8 75.4 1217.79 75.23 1217.73C72.62 1216.8 69.18 1216.39 66.49 1215.51C57.29 1212.54 46.36 1205.81 43.6 1195.93L42.85 1192.34C42.91 1191.27 42.76 1190.1 42.85 1189.04C43.6 1179.77 51.49 1171.79 60.31 1169.69C69.85 1167.43 80.42 1171.35 87.45 1177.84C88.52 1178.83 90.17 1180.51 91.07 1181.63C92.41 1183.27 93.69 1185.35 94.73 1187.2C97.47 1192.07 99.17 1197.45 100.37 1202.91Z" fill="#F6C1D8"/>
<path d="M112.98 1208.5C112.45 1208.98 111.75 1209.59 111.09 1209.84C111.03 1208.19 110.18 1205.85 109.04 1204.64C111.28 1203.2 113.89 1200.69 114.56 1198.02C119.26 1191.01 120.36 1182.19 113.46 1176.19C106.65 1170.28 99.54 1172.99 93.75 1178.63C92.44 1177.15 90.8 1175.97 89.18 1174.85C98.12 1161.57 116.94 1161.43 122.28 1177.6C125.96 1188.71 121.44 1200.94 112.98 1208.5Z" fill="#F6C1D8"/>
<path d="M111.09 1209.84C111.21 1212.93 109.79 1215.72 107.04 1217.22C106.41 1217.56 105.19 1217.82 104.79 1218.12C104.26 1218.52 103.01 1220.57 102.42 1221.26C98.69 1225.62 92.69 1229.89 87.26 1231.79C85.84 1232.29 81.34 1233.72 80.36 1232.22C79.64 1231.12 81.32 1229.38 81.78 1228.44C84.15 1226.72 87.41 1222.36 89.66 1220.09C91.25 1218.48 92.94 1216.97 94.54 1215.36C94.78 1215.11 96.11 1214.09 96.13 1213.99C96.2 1213.64 95.64 1212.57 95.53 1212.08C95.01 1209.74 95.56 1207.14 97.06 1205.27C97.85 1204.29 99.21 1203.34 100.37 1202.91C100.98 1202.68 102.3 1202.3 102.89 1202.27C103.16 1202.27 104.53 1202.38 104.79 1202.43C105.66 1202.6 107.19 1203.34 107.94 1203.85C108.1 1203.96 108.99 1204.59 109.04 1204.64C110.18 1205.85 111.03 1208.19 111.09 1209.84Z" fill="#C1C1E0"/>
<path d="M93.75 1178.63C92.8 1179.56 91.96 1180.63 91.07 1181.63C90.17 1180.51 88.52 1178.83 87.45 1177.84C87.86 1176.76 88.54 1175.8 89.18 1174.85C90.8 1175.97 92.44 1177.15 93.75 1178.63Z" fill="#EEA2C5"/>
<path d="M97.06 1205.27C95.55 1207.14 95 1209.74 95.53 1212.08C95.64 1212.57 96.2 1213.64 96.13 1213.99C96.11 1214.09 94.78 1215.12 94.54 1215.36C82.25 1214.9 67.47 1213.63 57.36 1205.97C40.47 1193.17 53.18 1171.67 72.54 1176.92C80.32 1179.03 86.55 1185.69 90.76 1192.27C93.34 1196.3 95.5 1200.75 97.06 1205.28V1205.27Z" fill="#F1DB6D"/>
<path d="M114.55 1198.02C114.94 1196.45 114.76 1194.23 114.06 1192.76C113.63 1191.87 111.91 1189.62 110.81 1190.65C110.17 1191.25 110.53 1194.96 110.45 1196.04C110.25 1198.72 109.15 1201.48 107.93 1203.84C107.18 1203.32 105.65 1202.59 104.78 1202.42C106.65 1198.87 106.68 1193.86 103.36 1191.15C102.48 1190.43 99.72 1188.92 99.06 1190.49C98.68 1191.38 100.3 1193.35 100.76 1194.22C102.05 1196.69 102.79 1199.47 102.88 1202.26C102.28 1202.28 100.97 1202.67 100.36 1202.89C99.16 1197.44 97.46 1192.05 94.71 1187.18C93.67 1185.33 92.39 1183.25 91.06 1181.61C91.94 1180.62 92.79 1179.54 93.74 1178.62C99.52 1172.98 106.63 1170.26 113.44 1176.17C120.35 1182.17 119.24 1191 114.54 1198L114.55 1198.02Z" fill="#F1DB6D"/>
<path d="M89.65 1220.09C87.4 1222.36 84.14 1226.72 81.77 1228.44C76.47 1232.29 62.81 1238.44 56.76 1234.46C52.59 1231.72 55.88 1227.46 58.8 1225.41C66.29 1220.15 79.88 1219.61 88.79 1219.92C89.09 1219.93 89.39 1219.9 89.65 1220.08V1220.09Z" fill="#F1DB6D"/>
<path d="M75.63 1218.03C70.54 1219.78 65.28 1221.1 59.93 1221.8C58.68 1221.96 57.13 1222.29 55.93 1221.98C58.98 1219.01 62.59 1217.18 66.49 1215.51C69.18 1216.39 72.62 1216.8 75.23 1217.73C75.4 1217.79 75.61 1217.8 75.63 1218.03Z" fill="#EEA2C5"/>
<path d="M114.55 1198.02C113.89 1200.69 111.27 1203.2 109.03 1204.64C108.98 1204.59 108.09 1203.97 107.93 1203.85C109.15 1201.49 110.25 1198.73 110.45 1196.05C110.53 1194.96 110.17 1191.25 110.81 1190.66C111.91 1189.63 113.63 1191.87 114.06 1192.77C114.76 1194.24 114.94 1196.46 114.55 1198.03V1198.02Z" fill="#525186"/>
<path d="M104.78 1202.43C104.53 1202.38 103.15 1202.26 102.89 1202.27C102.8 1199.47 102.06 1196.7 100.77 1194.23C100.31 1193.36 98.69 1191.39 99.07 1190.5C99.73 1188.93 102.49 1190.44 103.37 1191.16C106.69 1193.87 106.65 1198.88 104.79 1202.43H104.78Z" fill="#525186"/>
<path d="M372.58 283.32C372.2 281.83 376.35 280.47 373.41 277.33C371.1 274.86 366.52 277.53 366.22 277.2C366.12 273.84 363.15 270.4 359.89 269.72C359.54 269.33 361.2 268.13 361.45 267.69C363.81 263.48 358.95 259.35 355.14 261.96C356.35 256.72 352.67 253.27 347.54 253.9C346.71 250.52 346.4 246.36 345.24 243.13C343.88 239.34 341.2 239.94 338.13 238.73C337.15 238.35 335.21 236.73 334.72 236.66C333.26 236.44 332.4 238.26 330.97 238.39C329.95 238.49 329.12 237.69 328.1 237.56C326.19 237.31 324.55 237.95 323.11 239.14C322.74 239.44 323 239.97 322.38 239.83C320.01 235.45 315.14 237.9 311.45 237.84C306.77 237.76 299.09 233.49 295.49 238.54C294.19 240.36 294.9 241.56 294.62 243.41C294.29 245.51 291.57 245.58 290.17 247C289.16 248.03 289.21 248.71 288.66 249.82C288.56 250.01 288.63 250.37 288.17 250.18C287.92 250.07 285.95 248.01 285.79 247.67C283.74 243.45 288.29 243.81 289.7 241.37C290.23 240.46 290.92 237.75 290.34 236.86C289.95 236.25 281.27 232.74 280.11 232.65C275.78 232.29 277.27 234.93 275.24 236.11C274.17 236.73 272.67 236.35 271.62 237.37C270.63 238.33 270.79 240.15 269.92 241.13C269.2 241.94 267.79 242.04 266.89 242.7C264.3 244.63 266 248.35 269.11 248.11C270.3 248.02 274.55 245.98 274.81 248.61C275.09 251.49 269.63 250 268.07 250.2C265.09 250.59 262.87 253.23 259.64 251.39C258.88 250.95 258.32 249.97 257.56 249.73C254.72 248.82 254.12 252.27 252.06 253.17C250.59 253.8 248.45 253.46 247.21 254.35C246.06 255.18 246.53 256.28 246.2 257.37C244.67 262.52 234.49 262.5 232.4 268.58C231.26 271.87 233.36 273.58 233.42 276.74C231.24 277.34 228.09 279.47 228.93 282.1C229.98 285.38 234.82 282.61 236.38 283.51C236.79 283.75 236.5 285.34 236.92 285.76C237.49 286.32 243.13 286.11 243.45 286.41C243.52 286.48 243.63 288.06 243.75 288.41C244.44 288.4 244.7 287.82 245.4 287.62C247.38 287.06 249.68 287.59 251.46 287.07C253.81 286.38 254.93 283.5 257.97 284.11C258.29 284.17 258.98 284.61 258.98 284.82C258.98 285.45 254.55 288.57 253.72 289.03C249.41 291.41 239.82 292.18 242.31 299.04C241.33 299.09 238.5 298.91 238.29 300.05C238.19 300.57 238.38 304.01 238.59 304.21C238.68 304.29 240.42 304.24 241.11 304.41C245.89 305.65 244.08 310.82 247.22 312.97C250.18 315 253.94 314.25 256.97 312.84C259.14 311.83 259.58 311.68 259.85 309.39C259.91 308.9 259.98 308.43 260.14 307.96C256.57 307.9 258.02 306.81 256.26 305.62C255.73 305.26 255.31 305.67 255.26 305.65C254.66 305.23 254.81 300.73 255.28 299.8C255.9 298.6 258.04 297.73 258.48 296.67C259.08 295.25 258.27 293.5 259.56 292C261.94 289.2 266.56 291.7 269.43 291.55C273.75 291.33 276.55 287.25 281.57 287.54C284.75 287.71 287.3 289.82 290.18 290.14C294.24 290.58 296.42 287.8 300.75 288.48C304.65 289.09 314.43 295.7 309.88 300.06C307.3 302.55 300.72 299.92 297.51 299.62C297.04 301.42 300.1 303.2 297.37 303.38C294.8 303.54 293.44 301.28 291.2 300.61C288.85 299.91 284.17 299.84 282.13 301.34C280.3 302.69 279.61 307.57 276.51 305.53C274.63 304.29 275.1 301.69 271.71 301.13C266.4 300.24 264.24 305.57 260.42 307.96C261.51 307.93 262.46 307.65 263.44 307.64C263.89 307.64 265.18 308.08 265.31 307.96C265.57 307.72 265.13 305.81 267.31 305.22C269.8 304.54 270.32 306.51 270.49 308.53C270.64 310.43 270.15 314.68 273.65 313.13C274.24 312.87 275.2 311.83 275.86 311.46C278.1 310.19 279.8 309.92 282.27 310.83L282.41 307.08L286.01 307.1V303.64C288.77 303.71 290.8 305.74 292.91 307.09C294.21 307.93 297.51 310.46 298.66 310.83C300.96 311.58 302.85 310.44 304.49 310.61C305.75 310.73 307.26 312.49 308.93 312.77C310.26 313 312.85 312.86 314.18 312.56C316.9 311.93 320.12 309.73 323.09 308.82C323.83 308.59 325.44 307.96 326.11 307.96H331.57C333.6 307.96 334.47 304.41 335.9 304.21C336.75 304.09 338.05 304.89 338.72 305.41C339.34 305.89 339.43 306.48 339.48 306.52C339.99 306.92 342.56 308.93 342.93 309.11C343.88 309.55 346.84 310.06 348 310.22C351.33 310.67 357.18 310.96 359.27 307.77C361.6 304.19 357.98 302.6 358.45 299.04C360.79 299.34 363.05 299.62 365.05 298.03C366.14 297.16 365.19 296.03 365.18 294.83C365.15 292.35 367.41 289.07 369.94 288.54C372.12 288.07 374.51 289.17 375.99 286.97V285.82C375.37 284.77 372.88 284.48 372.58 283.32ZM298.34 266.1C297.64 267.33 293.92 267.94 295.19 269.89C295.75 270.74 296.66 270.77 297.51 270.3C296.8 275.63 290.51 273.85 286.76 275.51C283.85 276.8 283.44 278.67 281.39 280.19C276.67 283.7 276.47 276.43 273.14 275.26C268.84 273.76 265.53 279.51 261.41 280.05C255.51 280.82 255.15 276.68 251.24 274.74C249.64 273.96 248.04 274.02 246.64 273.3C248.33 269.88 246.57 262.65 252.23 263.12C252.98 263.18 255.99 264.11 256.4 263.69C256.56 263.52 255.9 261.53 257.92 260.47C260.55 259.1 263.63 261.29 263.87 261.1C263.93 261.05 264.05 260.16 264.59 259.66C267.4 257.03 275.15 254.9 278.94 255.38C281.19 255.66 283.85 257.3 286.17 257.37C287.68 257.42 289.18 256.37 290.6 256.95C291.16 257.17 295.65 260.86 296.36 261.53C297.67 262.75 299.46 264.14 298.34 266.1ZM306.16 257.77C303.6 255.43 303.86 252.04 304.83 249.02C305.78 246.09 309.84 246.23 311.98 244.96C313.02 244.35 314.03 242.29 314.37 242.17C316.36 241.5 325.59 245.61 328.18 246.1C330.21 244.4 331.71 243.14 334.59 243.57L334.31 241.84C338.06 241.81 342.08 244.65 343.35 248.17C344 249.96 343.77 252.61 344.3 253.84C344.83 255.09 347.13 256.06 347.27 257.5C347.59 260.82 343.2 259.21 341.33 259.36C338.59 259.59 338.99 261.54 337.62 263.12C335.04 266.1 325.69 265.41 322.29 264.06C319.07 262.78 323.55 260.02 321.78 258.82C321.01 258.3 317.92 258.17 316.9 258.22C313.15 258.37 309.49 260.81 306.16 257.77ZM351.42 286.69C348.91 287.17 350.49 292.12 351.69 293.59C352.95 295.13 355.81 296.03 355.89 298.03C356.03 301.13 350.62 301.63 350.82 305.09C347.78 305.47 345.15 302.69 344.99 299.77C344.95 298.91 345.92 297.95 344.2 297.92C342.14 297.87 341.23 300.36 338.78 299.89C338.27 299.8 337.96 299.35 337.33 299.31C336.49 299.25 333.88 300.33 332.96 300.72C330.23 301.88 324.76 306.54 322.5 302.65C321.53 300.97 324 299.33 322.77 296.93C322.28 295.97 318.99 293.75 317.92 293.15C316.17 292.15 312.15 291.09 311.86 288.85C311.52 286.16 313.49 284.23 310.15 281.95C309.48 281.5 307.88 281.57 309.01 280.5C309.43 280.1 310.4 280.13 310.45 280.07C310.55 279.96 310.1 279.26 310.2 278.84C310.57 277.25 317.5 273.72 319.24 273.49C322.98 272.98 322.72 274.39 325.1 275.05C327.91 275.83 329.26 273.2 331.42 272.16C335.61 270.15 340.5 273.11 345.08 272.88C347.54 272.76 348.17 271.71 350.54 273.47C354.48 276.4 357.29 282.72 363.62 280.08C368.67 289.85 356.21 285.77 351.42 286.69Z" fill="#88BE43"/>
<path d="M342.93 309.11C340.96 313 339.05 315.88 335.55 318.54C321.31 329.38 294.7 339.31 300.88 361.93C302.02 366.09 304.22 369.48 306.71 372.92H277.1C277.97 370.12 279.46 367.45 280.47 364.65C287.08 346.38 284.21 329.88 267.76 318.58C264.38 316.27 260.65 314.6 256.97 312.84C259.14 311.83 259.58 311.68 259.85 309.39C261.16 310.1 266.67 314.1 267.74 314.01C269.22 313.89 269.87 309.66 270.49 308.53C270.64 310.43 270.15 314.68 273.65 313.13C274.69 315.82 275.89 318.53 277.44 320.98C278.98 323.41 283.95 329.95 286.75 330.35C294.42 331.46 292.53 320.27 293.51 315.58L292.91 307.09C294.21 307.93 297.51 310.46 298.66 310.83C298.54 315.22 298.18 327.62 305.57 325.64C308.33 324.9 311.93 318.21 313.08 315.62C313.52 314.64 313.92 313.6 314.18 312.56C316.9 311.93 320.12 309.73 323.09 308.82C321.75 313.01 322.61 318.02 328.11 317.14C331.46 316.6 338.05 309.73 339.48 306.52C339.99 306.92 342.56 308.93 342.93 309.11Z" fill="#99795F"/>
<path d="M363.61 280.08C368.66 289.85 356.21 285.78 351.41 286.69C348.9 287.17 350.49 292.12 351.68 293.59C352.94 295.13 355.8 296.02 355.88 298.03C356.01 301.13 350.6 301.63 350.8 305.09C347.76 305.47 345.13 302.69 344.98 299.77C344.94 298.92 345.91 297.96 344.19 297.92C342.12 297.87 341.22 300.37 338.76 299.9C338.26 299.8 337.94 299.36 337.31 299.31C336.47 299.25 333.86 300.33 332.94 300.72C330.21 301.88 324.74 306.54 322.48 302.66C321.5 300.98 323.98 299.34 322.75 296.93C322.26 295.97 318.97 293.75 317.91 293.15C316.15 292.16 312.14 291.1 311.85 288.86C311.51 286.17 313.47 284.23 310.13 281.96C309.47 281.51 307.87 281.58 308.99 280.51C309.41 280.11 310.38 280.13 310.43 280.08C310.54 279.96 310.08 279.27 310.18 278.85C310.56 277.27 317.48 273.73 319.22 273.5C322.96 273 322.7 274.41 325.08 275.06C327.89 275.84 329.24 273.2 331.4 272.17C335.59 270.16 340.48 273.12 345.06 272.89C347.52 272.77 348.15 271.72 350.52 273.48C354.47 276.41 357.27 282.73 363.6 280.09L363.61 280.08Z" fill="#7CAB3C"/>
<path d="M297.5 270.3C296.79 275.63 290.5 273.85 286.76 275.51C283.84 276.8 283.43 278.67 281.38 280.19C276.66 283.69 276.47 276.43 273.14 275.26C268.84 273.76 265.53 279.5 261.41 280.04C255.52 280.81 255.15 276.67 251.24 274.74C249.65 273.95 248.05 274.02 246.64 273.29C248.33 269.88 246.57 262.64 252.23 263.11C252.98 263.17 255.99 264.11 256.4 263.68C256.56 263.51 255.9 261.52 257.92 260.46C260.54 259.09 263.62 261.29 263.86 261.09C263.92 261.04 264.04 260.14 264.58 259.64C267.4 257.01 275.14 254.88 278.94 255.36C281.19 255.64 283.85 257.28 286.17 257.36C287.68 257.41 289.18 256.36 290.6 256.93C291.16 257.16 295.65 260.85 296.36 261.51C297.67 262.73 299.46 264.12 298.33 266.08C297.63 267.31 293.92 267.92 295.18 269.87C295.73 270.72 296.65 270.75 297.49 270.28L297.5 270.3Z" fill="#7CAB3C"/>
<path d="M334.59 243.57L334.3 241.85C338.06 241.81 342.07 244.66 343.35 248.18C344 249.97 343.77 252.61 344.29 253.85C344.81 255.09 347.12 256.07 347.26 257.51C347.58 260.83 343.2 259.22 341.33 259.37C338.59 259.59 338.99 261.55 337.62 263.13C335.04 266.11 325.69 265.42 322.29 264.07C319.07 262.79 323.55 260.03 321.78 258.83C321.01 258.31 317.92 258.18 316.9 258.22C313.15 258.38 309.49 260.81 306.16 257.77C303.6 255.44 303.86 252.04 304.83 249.03C305.8 246.02 309.83 246.23 311.98 244.97C313.01 244.36 314.03 242.3 314.37 242.18C316.36 241.51 325.58 245.61 328.18 246.1C330.2 244.4 331.71 243.14 334.59 243.57Z" fill="#7CAB3C"/>
<path d="M309.88 300.06C307.3 302.55 300.72 299.92 297.51 299.62C297.04 301.42 300.1 303.2 297.37 303.38C294.8 303.54 293.44 301.28 291.2 300.61C288.85 299.91 284.17 299.84 282.13 301.34C280.3 302.69 279.61 307.57 276.51 305.53C274.63 304.29 275.1 301.69 271.71 301.13C266.4 300.24 264.24 305.57 260.42 307.96H260.14C256.57 307.9 258.02 306.81 256.26 305.62C255.73 305.26 255.31 305.67 255.26 305.65C254.66 305.23 254.81 300.73 255.28 299.8C255.9 298.6 258.04 297.73 258.48 296.67C259.08 295.25 258.27 293.5 259.56 292C261.94 289.2 266.56 291.7 269.43 291.55C273.75 291.33 276.55 287.25 281.57 287.54C284.75 287.71 287.3 289.82 290.18 290.14C294.24 290.58 296.42 287.8 300.75 288.48C304.65 289.09 314.43 295.7 309.88 300.06Z" fill="#7CAB3C"/>
</g>
<defs>
<linearGradient id="paint0_linear_1925_9870" x1="199.98" y1="82.31" x2="192.71" y2="1506.32" gradientUnits="userSpaceOnUse">
<stop stop-color="#FFFDE3"/>
<stop offset="0.5" stop-color="#FDFCE3"/>
<stop offset="0.68" stop-color="#F6F9E6"/>
<stop offset="0.81" stop-color="#EAF5EA"/>
<stop offset="0.91" stop-color="#D9EEF0"/>
<stop offset="1" stop-color="#C3E6F8"/>
</linearGradient>
<clipPath id="clip0_1925_9870">
<rect width="393" height="1526.05" fill="white"/>
</clipPath>
</defs>
</svg>
