<svg width="393" height="852" viewBox="0 0 393 852" fill="none" xmlns="http://www.w3.org/2000/svg">
<g clip-path="url(#clip0_1972_10289)">
<g clip-path="url(#clip1_1972_10289)">
<path d="M353.076 507.418C387.181 481.646 397.889 438.336 376.992 410.683C356.095 383.03 311.508 381.506 277.402 407.278C243.297 433.051 232.589 476.361 253.486 504.014C274.383 531.666 318.971 533.191 353.076 507.418Z" fill="#F6F6F6"/>
<path d="M440.086 488.671L427.679 518.447L451.457 549.913L416.003 584.746L415.992 584.755C415.592 584.41 415.217 584.099 414.87 583.802C415.061 584.217 415.258 584.662 415.48 585.141L415.469 585.15L372.28 609.746L348.501 578.28L316.469 582.086C314.071 566.977 315.114 548.254 316.182 536.644C316.799 529.989 317.431 525.667 317.431 525.667L320.579 523.287C331.74 520.429 342.898 515.162 353.101 507.452C353.969 506.796 354.828 506.129 355.66 505.448C364.671 498.149 371.914 489.599 377.225 480.481L385.548 474.192C385.548 474.192 388.618 474.599 393.516 475.46C404.585 477.409 424.954 481.647 440.086 488.671Z" fill="#FFD95C"/>
<path d="M333.044 606.287C330.67 606.175 328.598 605.469 326.783 604.271C324.759 602.933 323.059 600.984 321.633 598.566C321.327 598.045 321.035 597.497 320.754 596.94C320.729 596.906 320.715 596.865 320.692 596.812C320.344 596.096 320.018 595.364 319.697 594.592C319.503 594.127 319.331 593.645 319.159 593.163C319.043 592.849 318.931 592.514 318.826 592.191C318.663 591.72 318.502 591.23 318.372 590.734C318.253 590.369 318.154 590.007 318.056 589.644C317.934 589.229 317.824 588.806 317.722 588.393C317.589 587.917 317.476 587.443 317.385 586.952C317.28 586.49 317.175 586.027 317.081 585.556C316.976 585.094 316.894 584.614 316.8 584.143C316.706 583.672 316.624 583.193 316.552 582.705C316.512 582.49 316.481 582.287 316.461 582.075L348.493 578.268L348.51 578.291C348.51 578.291 348.543 578.405 348.591 578.491C348.611 578.564 348.65 578.639 348.676 578.742C348.704 578.825 348.738 578.94 348.783 579.045C348.825 579.171 348.884 579.318 348.932 579.474C350.779 584.949 356.885 607.394 333.044 606.287Z" fill="#FFD95C"/>
<path d="M415.461 585.139C415.511 585.205 415.531 585.278 415.57 585.353C416.543 587.519 417.781 590.29 419.075 593.298C419.322 593.88 419.578 594.473 419.834 595.066C420.369 596.306 420.906 597.595 421.427 598.862C421.671 599.464 421.925 600.077 422.172 600.659C422.392 601.227 422.623 601.787 422.837 602.324C422.997 602.745 423.152 603.135 423.304 603.544C424.602 606.881 425.673 609.918 426.2 612.072C428.334 620.633 395.638 656.965 381.47 645.873C367.291 634.789 381.806 622.352 381.806 622.352L372.271 609.735L415.461 585.139Z" fill="#FFD95C"/>
<path d="M348.493 578.269L348.51 578.291C348.51 578.291 348.544 578.405 348.591 578.491C348.611 578.564 348.639 578.648 348.676 578.742C348.704 578.826 348.738 578.94 348.783 579.046C348.825 579.171 348.873 579.327 348.932 579.475C350.782 584.999 356.83 607.367 333.027 606.265C330.664 606.145 328.589 605.458 326.783 604.271C324.759 602.934 323.059 600.985 321.633 598.566C321.327 598.046 321.035 597.497 320.754 596.94C320.729 596.907 320.715 596.865 320.692 596.812C320.344 596.097 320.018 595.364 319.697 594.593C319.503 594.128 319.331 593.646 319.159 593.164C319.044 592.849 318.931 592.515 318.826 592.192C318.663 591.721 318.502 591.23 318.372 590.734C318.254 590.369 318.155 590.007 318.056 589.645C317.934 589.23 317.824 588.806 317.722 588.394C317.589 587.917 317.476 587.443 317.385 586.953C317.28 586.49 317.175 586.028 317.081 585.557C316.976 585.094 316.894 584.614 316.8 584.143C316.706 583.672 316.624 583.193 316.552 582.705C316.501 582.499 316.481 582.287 316.441 582.072L316.452 582.064L348.493 578.269Z" fill="#F6F6F6"/>
<path d="M415.472 585.13C415.511 585.205 415.531 585.278 415.57 585.353C416.543 587.519 417.781 590.29 419.075 593.298C419.333 593.872 419.589 594.465 419.834 595.066C420.369 596.306 420.906 597.595 421.427 598.862C421.671 599.464 421.916 600.066 422.172 600.659C422.392 601.227 422.623 601.787 422.837 602.324C422.989 602.734 423.152 603.135 423.304 603.544C424.602 606.881 425.673 609.918 426.2 612.072C428.334 620.633 395.638 656.965 381.47 645.873C367.291 634.789 381.806 622.352 381.806 622.352L372.271 609.735L415.461 585.139L415.472 585.13Z" fill="#F6F6F6"/>
<path d="M253.49 375.634C208.938 409.3 196.625 468.093 225.986 506.947C246.41 533.974 281.631 544.242 316.173 536.633C331.291 533.32 346.267 526.583 359.819 516.342C374.84 504.991 386.186 490.788 393.508 475.449C407.939 445.297 406.787 410.787 387.323 385.029C357.961 346.175 298.041 341.968 253.49 375.634ZM377.217 480.47C371.906 489.588 364.662 498.138 355.651 505.437C354.82 506.118 353.96 506.785 353.093 507.44C342.889 515.151 331.732 520.418 320.571 523.276C294.412 529.951 268.142 523.407 253.503 504.036C232.6 476.375 243.316 433.072 277.419 407.301C311.522 381.53 356.106 383.044 377.009 410.705C391.647 430.077 390.78 457.128 377.217 480.47Z" fill="#FFD95C"/>
<path d="M343.278 357.532L336.274 342.11C330.923 330.334 323.646 319.454 314.489 310.274C311.493 307.259 308.622 304.779 306.372 303.42C301.821 300.636 297.246 298.884 295.516 301.013C272.537 329.198 274.499 362.746 274.499 362.746L343.258 357.529L343.278 357.532Z" fill="#FFD95C"/>
<path d="M212.028 456.715L199.104 445.766C189.236 437.404 180.757 427.432 174.426 416.117C172.343 412.412 170.741 408.973 170.048 406.437C168.669 401.326 168.21 396.463 170.719 395.389C204.108 380.978 235.845 392.026 235.845 392.026L212.053 456.748L212.028 456.715Z" fill="#FFD95C"/>
<path d="M332.655 448.033C336.036 445.478 336.705 440.67 334.15 437.289C331.595 433.908 326.787 433.239 323.406 435.794C320.025 438.349 319.356 443.157 321.911 446.538C324.466 449.919 329.274 450.588 332.655 448.033Z" fill="#0B0A0A"/>
<path d="M324.088 443.459C324.859 442.876 325.01 441.793 324.427 441.021C323.844 440.25 322.761 440.099 321.99 440.682C321.218 441.265 321.067 442.348 321.65 443.12C322.233 443.891 323.317 444.042 324.088 443.459Z" fill="#EEEEFF"/>
<path d="M299.118 473.026C302.499 470.471 303.168 465.663 300.613 462.282C298.058 458.901 293.25 458.232 289.869 460.787C286.488 463.342 285.819 468.15 288.374 471.531C290.929 474.912 295.737 475.581 299.118 473.026Z" fill="#0B0A0A"/>
<path d="M290.551 468.452C291.322 467.869 291.473 466.786 290.89 466.014C290.307 465.243 289.224 465.092 288.452 465.675C287.681 466.258 287.53 467.341 288.113 468.113C288.696 468.884 289.78 469.035 290.551 468.452Z" fill="#EEEEFF"/>
<path d="M326.128 471.896C317.838 478.16 307.479 482.703 307.044 482.891C306.334 483.201 305.513 482.877 305.204 482.167C304.894 481.457 305.226 480.647 305.928 480.326C306.034 480.281 316.435 475.725 324.446 469.671C332.457 463.617 336.332 457.456 336.371 457.391C336.781 456.732 337.634 456.542 338.294 456.952C338.953 457.362 339.143 458.215 338.733 458.875C338.566 459.141 334.484 465.582 326.117 471.905L326.128 471.896Z" fill="#0B0A0A"/>
<path d="M319.03 460.445C318.896 460.545 318.757 460.616 318.59 460.672C315.834 461.513 314.815 463.402 314.773 463.486C314.419 464.174 313.586 464.436 312.907 464.093C312.227 463.749 311.954 462.925 312.289 462.235C312.355 462.114 313.837 459.194 317.796 458.003C318.535 457.777 319.312 458.204 319.529 458.931C319.699 459.502 319.486 460.1 319.03 460.445Z" fill="#0B0A0A"/>
<path d="M295.032 444.579C293.686 445.597 292.151 446.389 290.432 446.936L290.031 447.03C276.935 449.339 268.201 429.684 267.83 428.846C267.166 427.32 267.859 425.554 269.386 424.89C270.912 424.227 272.677 424.92 273.341 426.447C275.29 430.9 281.849 442.147 288.799 441.143C291.131 440.342 292.791 438.931 293.852 436.818C290.068 435.535 286.915 433.145 285.053 431.72C281.738 429.208 279.649 425.333 279.608 421.623C279.569 418.751 280.759 416.208 282.932 414.479C285.073 412.756 287.774 412.166 290.471 412.82C294.055 413.677 297.293 416.597 299.115 420.604C300.42 423.464 301.284 427.338 301.173 431.285C302.883 430.657 304.427 429.299 305.891 427.143C310.181 419.217 295.694 408.838 295.549 408.738C294.187 407.792 293.86 405.924 294.806 404.562C295.752 403.2 297.611 402.862 298.973 403.808C299.773 404.357 318.271 417.386 311.074 430.184L310.946 430.385C308.197 434.473 304.856 436.876 300.984 437.512C300.658 437.566 300.334 437.601 300.011 437.635C299.87 438.004 299.729 438.373 299.568 438.739C298.511 441.111 296.973 443.077 295.004 444.565L295.032 444.579ZM286.756 419.123C286.756 419.123 286.711 419.157 286.689 419.174C285.96 419.76 285.615 420.528 285.629 421.565C285.647 423.44 286.857 425.55 288.703 426.952C290.135 428.037 292.538 429.875 295.192 430.911C295.24 428.06 294.624 425.187 293.671 423.093C292.633 420.818 290.845 419.075 289.092 418.652C288.215 418.44 287.457 418.594 286.767 419.115L286.756 419.123Z" fill="#8886FF"/>
<path d="M366.854 544.134C366.365 544.504 365.676 544.517 365.172 544.128C365.001 543.995 360.842 540.758 359.146 535.275C358.835 534.286 358.681 533.249 358.694 532.225C354.929 530.088 352.674 525.762 353.165 521.23L353.446 518.641C353.532 517.876 354.216 517.324 354.981 517.411C355.745 517.497 356.297 518.181 356.211 518.946L355.93 521.535C355.598 524.566 356.906 527.476 359.155 529.203C359.375 528.477 359.682 527.772 360.062 527.118C361.01 525.458 362.932 524.81 364.72 525.556C366.452 526.275 367.323 528.029 366.833 529.833L366.764 530.042C366.061 532.304 363.82 533.665 361.538 533.328C361.592 533.723 361.68 534.094 361.796 534.479C363.215 539.087 366.824 541.919 366.86 541.944C367.462 542.416 367.579 543.289 367.115 543.901C367.032 543.999 366.949 544.097 366.849 544.173L366.854 544.134ZM361.695 530.482C362.717 530.793 363.791 530.226 364.114 529.196L364.152 529.062C364.315 528.467 363.912 528.212 363.658 528.107C363.479 528.032 362.859 527.836 362.491 528.482C362.133 529.119 361.871 529.79 361.695 530.482Z" fill="#8886FF"/>
<path d="M387.438 528.578C387.338 528.654 387.23 528.719 387.104 528.761C386.388 529.04 385.581 528.688 385.291 527.981C385.266 527.947 383.546 523.706 379.492 521.071C379.154 520.854 378.821 520.669 378.455 520.508C378.168 522.788 376.236 524.58 373.879 524.63L373.651 524.628C371.79 524.619 370.34 523.302 370.113 521.428C369.883 519.504 371.021 517.841 372.888 517.374C373.64 517.19 374.39 517.095 375.141 517.07C374.085 514.424 371.651 512.382 368.645 511.875L366.077 511.438C365.318 511.312 364.802 510.583 364.936 509.835C365.062 509.076 365.791 508.56 366.539 508.694L369.106 509.131C373.6 509.896 377.143 513.266 378.174 517.452C379.171 517.73 380.118 518.151 380.993 518.73C385.805 521.859 387.783 526.745 387.865 526.945C388.101 527.536 387.9 528.195 387.41 528.565L387.438 528.578ZM373.222 520.268C372.877 520.528 372.884 520.977 372.904 521.119C372.936 521.393 373.083 521.841 373.688 521.856L373.827 521.855C374.887 521.824 375.726 520.945 375.706 519.876C374.983 519.846 374.267 519.915 373.564 520.096C373.419 520.136 373.303 520.189 373.202 520.265L373.222 520.268Z" fill="#8886FF"/>
</g>
<g clip-path="url(#clip2_1972_10289)">
<path d="M95.6409 176.1C95.6409 176.1 120.553 173.186 123.459 184.036C125.736 192.531 115.638 199.079 109.435 201.387C103.815 203.481 96.952 200.682 96.8063 195C96.6607 189.319 103.592 187.524 109.051 189.48C116.842 192.278 129.846 198.55 123.482 208.986C117.309 219.099 97.136 214.284 97.136 214.284" stroke="#514FFF" stroke-width="12.2681" stroke-miterlimit="10" stroke-linecap="round"/>
<path d="M45.7249 212.666C45.7249 212.666 72.707 209.745 75.6207 220.602C77.898 229.098 68.0528 236.428 62.3865 239.863C57.1802 243.022 46.921 240.446 46.7753 234.764C46.6296 229.082 55.5087 226.498 62.0031 227.955C69.755 229.696 80.7427 238.521 75.176 249.394C69.341 260.788 46.8367 255.39 46.8367 255.39" stroke="#514FFF" stroke-width="12.2681" stroke-miterlimit="10" stroke-linecap="round"/>
<path d="M49.9805 170.518C56.6743 170.518 66.6804 173.623 69.7628 182.885" stroke="#FFD95C" stroke-width="13.0349" stroke-miterlimit="10" stroke-linecap="round"/>
<path d="M38.5176 196.664H81.1186" stroke="#FFD95C" stroke-width="13.0349" stroke-miterlimit="10" stroke-linecap="round"/>
<path d="M139.461 172.342V217.328" stroke="#FFD95C" stroke-width="13.0349" stroke-miterlimit="10" stroke-linecap="round"/>
<path d="M149.483 198.42H143.847" stroke="#FFD95C" stroke-width="13.0349" stroke-miterlimit="10" stroke-linecap="round"/>
<path d="M120.085 254.707C130.79 254.707 139.469 249.136 139.469 242.263C139.469 235.39 130.79 229.818 120.085 229.818C109.38 229.818 100.701 235.39 100.701 242.263C100.701 249.136 109.38 254.707 120.085 254.707Z" stroke="#FFD95C" stroke-width="13.0349" stroke-miterlimit="10" stroke-linecap="round"/>
</g>
<path d="M37.1416 90.6182C37.1416 91.4912 37.0039 92.3379 36.7285 93.1582C36.4531 93.9785 36.0371 94.7139 35.4805 95.3643C34.9238 96.0146 34.2471 96.5068 33.4502 96.8408L32.3867 95.3291C33.0898 95.0244 33.6816 94.6172 34.1621 94.1074C34.6426 93.5977 35.0029 93.041 35.2432 92.4375C35.4834 91.834 35.6035 91.2275 35.6035 90.6182V88.6582H37.1416V90.6182ZM37.4932 90.6182C37.4932 91.2041 37.6074 91.7725 37.8359 92.3232C38.0703 92.874 38.4189 93.3691 38.8818 93.8086C39.3447 94.248 39.9102 94.5996 40.5781 94.8633L39.541 96.3486C38.7559 96.0439 38.0938 95.6045 37.5547 95.0303C37.0156 94.4502 36.6143 93.7822 36.3506 93.0264C36.0869 92.2646 35.9551 91.4619 35.9551 90.6182V88.6582H37.4932V90.6182ZM46.1152 97.4385H44.252V87.6914H46.1152V97.4385ZM44.7969 93.29H42.0811V91.6992H44.7969V93.29ZM42.6699 96.9375H40.8506V87.9814H42.6699V96.9375ZM40.7539 97.6934C41.8613 97.6934 42.8252 97.8105 43.6455 98.0449C44.4658 98.2734 45.0957 98.6074 45.5352 99.0469C45.9746 99.4863 46.1943 100.011 46.1943 100.62C46.1943 101.218 45.9746 101.736 45.5352 102.176C45.0957 102.615 44.4658 102.952 43.6455 103.187C42.8252 103.421 41.8613 103.538 40.7539 103.538C39.6465 103.538 38.6797 103.421 37.8535 103.187C37.0332 102.952 36.4033 102.615 35.9639 102.176C35.5303 101.736 35.3135 101.218 35.3135 100.62C35.3135 100.011 35.5303 99.4863 35.9639 99.0469C36.4033 98.6074 37.0332 98.2734 37.8535 98.0449C38.6738 97.8105 39.6406 97.6934 40.7539 97.6934ZM40.7539 99.1611C40.0215 99.1611 39.3916 99.2168 38.8643 99.3281C38.3428 99.4395 37.9443 99.6035 37.6689 99.8203C37.3994 100.037 37.2646 100.304 37.2646 100.62C37.2646 100.925 37.3994 101.186 37.6689 101.402C37.9443 101.619 38.3428 101.783 38.8643 101.895C39.3857 102.006 40.0156 102.062 40.7539 102.062C41.4863 102.062 42.1104 102.006 42.626 101.895C43.1475 101.783 43.5459 101.619 43.8213 101.402C44.1025 101.186 44.2432 100.925 44.2432 100.62C44.2432 100.304 44.1025 100.037 43.8213 99.8203C43.5459 99.6035 43.1445 99.4395 42.6172 99.3281C42.0957 99.2168 41.4746 99.1611 40.7539 99.1611ZM60.6172 96.9287H58.666V87.6738H60.6172V96.9287ZM62.8408 93.1318H60.0635V91.4971H62.8408V93.1318ZM56.1875 88.6143C56.1875 89.9854 55.8945 91.2188 55.3086 92.3145C54.7285 93.4043 53.8848 94.333 52.7773 95.1006C51.6699 95.8682 50.3223 96.4541 48.7344 96.8584L47.9346 95.3555C49.2646 95.0098 50.3896 94.5498 51.3096 93.9756C52.2354 93.4014 52.9355 92.7422 53.4102 91.998C53.8848 91.248 54.1221 90.4365 54.1221 89.5635V88.6143H56.1875ZM55.2822 90.1787H48.7256V88.6143H55.2822V90.1787ZM60.6172 103.547H58.666V99.1699H50.0264V97.6055H60.6172V103.547ZM70.8828 87.9287C72.084 87.9287 73.1123 88.0312 73.9678 88.2363C74.8232 88.4414 75.4736 88.749 75.9189 89.1592C76.3643 89.5635 76.5869 90.0557 76.5869 90.6357C76.5869 91.2217 76.3643 91.7197 75.9189 92.1299C75.4736 92.5342 74.8232 92.8418 73.9678 93.0527C73.1123 93.2637 72.084 93.375 70.8828 93.3867C69.6699 93.375 68.6357 93.2637 67.7803 93.0527C66.9248 92.8418 66.2715 92.5342 65.8203 92.1299C65.3691 91.7197 65.1436 91.2217 65.1436 90.6357C65.1436 90.0557 65.3691 89.5635 65.8203 89.1592C66.2715 88.749 66.9248 88.4414 67.7803 88.2363C68.6357 88.0312 69.6699 87.9287 70.8828 87.9287ZM70.8828 89.3613C70.0742 89.3613 69.3945 89.4111 68.8438 89.5107C68.293 89.6045 67.8799 89.748 67.6045 89.9414C67.3291 90.1348 67.1914 90.3662 67.1914 90.6357C67.1914 90.9346 67.3262 91.1777 67.5957 91.3652C67.8652 91.5527 68.2725 91.6934 68.8174 91.7871C69.3623 91.8809 70.0508 91.9277 70.8828 91.9277C71.7207 91.9277 72.4092 91.8809 72.9482 91.7871C73.4873 91.6934 73.8945 91.5498 74.1699 91.3564C74.4453 91.1631 74.583 90.9229 74.583 90.6357C74.583 90.3662 74.4424 90.1377 74.1611 89.9502C73.8799 89.7568 73.4639 89.6104 72.9131 89.5107C72.3682 89.4111 71.6914 89.3613 70.8828 89.3613ZM78.1162 95.8037H63.6494V94.2393H78.1162V95.8037ZM76.3232 100.752H67.2881V102.343H65.3545V99.3721H74.3896V98.3086H65.3457V96.8672H76.3232V100.752ZM76.7539 103.424H65.3545V101.93H76.7539V103.424ZM92.0996 89.2471C92.0996 90.9697 91.8857 92.5371 91.458 93.9492C91.0303 95.3613 90.2744 96.6768 89.1904 97.8955C88.1064 99.1084 86.6211 100.181 84.7344 101.112L83.6885 99.5918C85.3057 98.8008 86.5918 97.9072 87.5469 96.9111C88.502 95.915 89.1816 94.8135 89.5859 93.6064C89.9961 92.3994 90.2012 91.0283 90.2012 89.4932V89.2471H92.0996ZM91.1855 90.8291H84.6113V89.2471H91.1855V90.8291ZM84.0576 95.2236L83.7939 93.5361L90.0781 93.1582V94.6611L84.0576 95.2236ZM96.7578 103.547H94.7803V87.6738H96.7578V103.547ZM113.554 98.2295H99.0342V96.6299H113.554V98.2295ZM107.208 103.564H105.283V97.623H107.208V103.564ZM106.25 88.2451C107.375 88.2451 108.368 88.3887 109.229 88.6758C110.097 88.9629 110.771 89.376 111.251 89.915C111.731 90.4541 111.972 91.0869 111.972 91.8135C111.972 92.5166 111.731 93.1318 111.251 93.6592C110.771 94.1865 110.097 94.5967 109.229 94.8896C108.368 95.1768 107.375 95.3203 106.25 95.3203C105.131 95.3203 104.138 95.1768 103.271 94.8896C102.403 94.5967 101.732 94.1865 101.258 93.6592C100.783 93.1318 100.546 92.5166 100.546 91.8135C100.546 91.0869 100.783 90.4541 101.258 89.915C101.732 89.376 102.403 88.9629 103.271 88.6758C104.138 88.3887 105.131 88.2451 106.25 88.2451ZM106.25 89.8096C105.506 89.8096 104.855 89.8887 104.299 90.0469C103.742 90.2051 103.314 90.4365 103.016 90.7412C102.717 91.04 102.567 91.3975 102.567 91.8135C102.567 92.2178 102.717 92.5693 103.016 92.8682C103.314 93.1611 103.742 93.3838 104.299 93.5361C104.855 93.6885 105.506 93.7676 106.25 93.7734C107.006 93.7676 107.662 93.6885 108.219 93.5361C108.775 93.3838 109.203 93.1611 109.502 92.8682C109.807 92.5693 109.959 92.2178 109.959 91.8135C109.959 91.3975 109.807 91.04 109.502 90.7412C109.203 90.4365 108.772 90.2051 108.21 90.0469C107.653 89.8887 107 89.8096 106.25 89.8096ZM126.324 90.6973H116.103V89.124H126.324V90.6973ZM129.075 101.508H114.608V99.917H129.075V101.508ZM121.877 100.734H119.952V94.3799H121.877V100.734ZM127.563 90.6621C127.563 91.5938 127.552 92.3848 127.528 93.0352C127.505 93.6797 127.449 94.4414 127.361 95.3203C127.273 96.1934 127.136 97.1426 126.948 98.168L124.971 97.957C125.164 96.9961 125.308 96.0908 125.401 95.2412C125.495 94.3857 125.551 93.627 125.568 92.9648C125.586 92.3027 125.595 91.5352 125.595 90.6621V89.124H127.563V90.6621ZM37.9854 117.038C37.9854 118.099 37.8125 119.083 37.4668 119.991C37.1211 120.899 36.6084 121.69 35.9287 122.364C35.2549 123.038 34.4346 123.551 33.4678 123.902L32.4219 122.32C33.2773 122.039 34.001 121.632 34.5928 121.099C35.1904 120.565 35.6387 119.953 35.9375 119.262C36.2363 118.564 36.3857 117.823 36.3857 117.038V115.535H37.9854V117.038ZM38.3457 116.95C38.3457 117.683 38.4863 118.377 38.7676 119.033C39.0488 119.689 39.4707 120.267 40.0332 120.765C40.5957 121.257 41.2783 121.632 42.0811 121.89L41.0264 123.41C40.1064 123.082 39.3271 122.604 38.6885 121.978C38.0557 121.351 37.5781 120.609 37.2559 119.754C36.9336 118.898 36.7725 117.964 36.7725 116.95V115.535H38.3457V116.95ZM45.834 124.017H43.8828V114.674H45.834V124.017ZM40.4639 124.447C41.5889 124.447 42.5557 124.567 43.3643 124.808C44.1787 125.042 44.8027 125.391 45.2363 125.854C45.6699 126.311 45.8867 126.861 45.8867 127.506C45.8867 128.139 45.6699 128.684 45.2363 129.141C44.8027 129.598 44.1787 129.943 43.3643 130.178C42.5557 130.418 41.5889 130.538 40.4639 130.538C39.3506 130.538 38.3867 130.418 37.5723 130.178C36.7637 129.943 36.1396 129.598 35.7002 129.141C35.2666 128.684 35.0498 128.139 35.0498 127.506C35.0498 126.861 35.2666 126.311 35.7002 125.854C36.1396 125.391 36.7637 125.042 37.5723 124.808C38.3867 124.567 39.3506 124.447 40.4639 124.447ZM40.4639 125.968C39.7314 125.968 39.1045 126.026 38.583 126.144C38.0615 126.255 37.666 126.428 37.3965 126.662C37.127 126.891 36.9922 127.172 36.9922 127.506C36.9922 127.816 37.127 128.086 37.3965 128.314C37.666 128.543 38.0615 128.716 38.583 128.833C39.1045 128.95 39.7314 129.009 40.4639 129.009C41.208 129.009 41.8379 128.95 42.3535 128.833C42.875 128.716 43.2676 128.543 43.5312 128.314C43.8008 128.086 43.9355 127.816 43.9355 127.506C43.9355 127.172 43.8008 126.891 43.5312 126.662C43.2676 126.428 42.875 126.255 42.3535 126.144C41.8379 126.026 41.208 125.968 40.4639 125.968ZM44.1904 119.358H40.7188V117.759H44.1904V119.358ZM53.4102 117.548C53.4102 118.55 53.2373 119.49 52.8916 120.369C52.5459 121.242 52.0332 122.004 51.3535 122.654C50.6797 123.299 49.8623 123.785 48.9014 124.113L47.9082 122.558C48.7344 122.282 49.4404 121.89 50.0264 121.38C50.6182 120.864 51.0635 120.278 51.3623 119.622C51.667 118.96 51.8193 118.269 51.8193 117.548V116.423H53.4102V117.548ZM53.7881 117.539C53.7881 118.195 53.9287 118.822 54.21 119.42C54.4912 120.012 54.9102 120.539 55.4668 121.002C56.0293 121.459 56.7119 121.813 57.5146 122.065L56.5918 123.604C55.6543 123.305 54.8545 122.856 54.1924 122.259C53.5361 121.661 53.0381 120.958 52.6982 120.149C52.3584 119.341 52.1885 118.471 52.1885 117.539V116.423H53.7881V117.539ZM57.084 117.354H48.4619V115.781H57.084V117.354ZM60.6172 124.148H58.666V114.674H60.6172V124.148ZM62.8408 120.088H60.0635V118.479H62.8408V120.088ZM55.4492 124.5C56.5449 124.5 57.4912 124.617 58.2881 124.852C59.0908 125.086 59.7031 125.432 60.125 125.889C60.5527 126.34 60.7666 126.879 60.7666 127.506C60.7666 128.133 60.5527 128.675 60.125 129.132C59.7031 129.589 59.0908 129.938 58.2881 130.178C57.4912 130.418 56.5449 130.538 55.4492 130.538C54.3477 130.538 53.3926 130.418 52.584 130.178C51.7754 129.938 51.1514 129.589 50.7119 129.132C50.2783 128.675 50.0615 128.133 50.0615 127.506C50.0615 126.879 50.2783 126.34 50.7119 125.889C51.1455 125.432 51.7666 125.086 52.5752 124.852C53.3896 124.617 54.3477 124.5 55.4492 124.5ZM55.4492 126.029C54.7285 126.029 54.1104 126.085 53.5947 126.196C53.085 126.302 52.6953 126.466 52.4258 126.688C52.1621 126.911 52.0303 127.184 52.0303 127.506C52.0303 127.822 52.1621 128.095 52.4258 128.323C52.6953 128.552 53.085 128.725 53.5947 128.842C54.1045 128.953 54.7227 129.009 55.4492 129.009C56.1816 129.009 56.7998 128.953 57.3037 128.842C57.8135 128.725 58.1973 128.552 58.4551 128.323C58.7129 128.095 58.8418 127.822 58.8418 127.506C58.8418 127.184 58.7129 126.911 58.4551 126.688C58.1973 126.466 57.8135 126.302 57.3037 126.196C56.7939 126.085 56.1758 126.029 55.4492 126.029ZM76.0859 130.547H74.1523V114.674H76.0859V130.547ZM78.5381 122.619H75.6465V121.011H78.5381V122.619ZM72.9219 118.682H63.5615V117.108H72.9219V118.682ZM68.29 119.71C69.0576 119.71 69.7432 119.871 70.3467 120.193C70.9561 120.51 71.4336 120.952 71.7793 121.521C72.125 122.089 72.2979 122.733 72.2979 123.454C72.2979 124.169 72.125 124.813 71.7793 125.388C71.4336 125.956 70.9561 126.398 70.3467 126.715C69.7432 127.031 69.0576 127.189 68.29 127.189C67.5283 127.189 66.8428 127.031 66.2334 126.715C65.624 126.398 65.1465 125.956 64.8008 125.388C64.4609 124.813 64.291 124.169 64.291 123.454C64.291 122.733 64.4609 122.089 64.8008 121.521C65.1465 120.952 65.624 120.51 66.2334 120.193C66.8428 119.871 67.5283 119.71 68.29 119.71ZM68.29 121.318C67.8857 121.318 67.5195 121.406 67.1914 121.582C66.8691 121.758 66.6143 122.007 66.4268 122.329C66.2451 122.651 66.1543 123.026 66.1543 123.454C66.1543 123.876 66.2451 124.248 66.4268 124.57C66.6143 124.893 66.8691 125.142 67.1914 125.317C67.5195 125.487 67.8857 125.572 68.29 125.572C68.7061 125.572 69.0752 125.487 69.3975 125.317C69.7197 125.142 69.9717 124.893 70.1533 124.57C70.335 124.248 70.4258 123.876 70.4258 123.454C70.4258 123.026 70.335 122.651 70.1533 122.329C69.9717 122.007 69.7197 121.758 69.3975 121.582C69.0752 121.406 68.7061 121.318 68.29 121.318ZM69.2568 117.741H67.3145V114.902H69.2568V117.741ZM92.0732 120.712H81.0518V119.174H92.0732V120.712ZM93.708 124.104H79.1885V122.558H93.708V124.104ZM83.0029 119.947H81.0518V115.254H83.0029V119.947ZM92.1699 130.187H80.9199V128.604H92.1699V130.187ZM82.8887 129.053H80.9199V125.52H82.8887V129.053ZM113.844 122.408H110.987V120.8H113.844V122.408ZM111.488 130.538H109.537V114.674H111.488V130.538ZM101.548 126.056H99.5967V116.212H101.548V126.056ZM100.941 124.983C102.172 124.983 103.396 124.928 104.615 124.816C105.834 124.705 107.064 124.526 108.307 124.28L108.526 125.915C107.278 126.167 106.03 126.346 104.782 126.451C103.54 126.551 102.26 126.601 100.941 126.601H99.5967V124.983H100.941ZM122.668 123.56H115.145V116.036H122.668V123.56ZM117.069 122.013H120.752V117.601H117.069V122.013ZM127.133 126.284H125.182V114.683H127.133V126.284ZM129.356 120.958H126.553V119.341H129.356V120.958ZM127.757 130.266H116.955V128.666H127.757V130.266ZM118.897 129.422H116.955V125.15H118.897V129.422ZM135.315 115.764C136.147 115.764 136.895 115.928 137.557 116.256C138.219 116.584 138.737 117.041 139.112 117.627C139.487 118.207 139.675 118.869 139.675 119.613C139.675 120.357 139.487 121.022 139.112 121.608C138.737 122.188 138.219 122.643 137.557 122.971C136.9 123.299 136.153 123.463 135.315 123.463C134.495 123.463 133.751 123.299 133.083 122.971C132.415 122.643 131.891 122.188 131.51 121.608C131.135 121.022 130.947 120.357 130.947 119.613C130.947 118.869 131.135 118.207 131.51 117.627C131.891 117.041 132.415 116.584 133.083 116.256C133.751 115.928 134.495 115.764 135.315 115.764ZM135.315 117.46C134.853 117.46 134.437 117.548 134.067 117.724C133.698 117.899 133.408 118.151 133.197 118.479C132.986 118.802 132.881 119.18 132.881 119.613C132.881 120.047 132.986 120.425 133.197 120.747C133.408 121.069 133.698 121.321 134.067 121.503C134.437 121.679 134.853 121.767 135.315 121.767C135.79 121.767 136.212 121.679 136.581 121.503C136.95 121.321 137.237 121.069 137.442 120.747C137.653 120.425 137.759 120.047 137.759 119.613C137.759 119.18 137.653 118.802 137.442 118.479C137.237 118.151 136.95 117.899 136.581 117.724C136.212 117.548 135.79 117.46 135.315 117.46ZM143.384 130.591H141.45V114.674H143.384V130.591ZM130.227 125.66C131.527 125.654 132.705 125.64 133.76 125.616C134.814 125.593 135.937 125.546 137.126 125.476C138.315 125.399 139.438 125.285 140.492 125.133L140.642 126.557C139.546 126.756 138.409 126.908 137.231 127.014C136.054 127.119 134.946 127.187 133.909 127.216C132.878 127.245 131.732 127.26 130.473 127.26L130.227 125.66ZM163.212 122.988H161.27V114.674H163.212V122.988ZM152.946 128.903C154.276 128.903 155.313 128.883 156.058 128.842C156.808 128.801 157.561 128.707 158.316 128.561L158.501 130.011C157.728 130.163 156.96 130.26 156.198 130.301C155.437 130.342 154.353 130.362 152.946 130.362H151.918V128.903H152.946ZM157.332 127.603H153.808V129.738H151.918V126.231H155.416V125.098H151.918V123.639H157.332V127.603ZM163.212 130.477H161.296V125.212H157.965V123.639H163.212V130.477ZM154.511 115.342C155.308 115.342 156.025 115.497 156.664 115.808C157.303 116.112 157.801 116.54 158.158 117.091C158.521 117.642 158.703 118.266 158.703 118.963C158.703 119.66 158.521 120.284 158.158 120.835C157.801 121.386 157.303 121.816 156.664 122.127C156.025 122.438 155.308 122.593 154.511 122.593C153.708 122.593 152.984 122.438 152.34 122.127C151.701 121.816 151.2 121.386 150.837 120.835C150.474 120.284 150.292 119.66 150.292 118.963C150.292 118.266 150.474 117.642 150.837 117.091C151.2 116.54 151.704 116.112 152.349 115.808C152.993 115.497 153.714 115.342 154.511 115.342ZM154.511 116.959C154.065 116.953 153.667 117.032 153.315 117.196C152.964 117.36 152.688 117.595 152.489 117.899C152.296 118.204 152.199 118.559 152.199 118.963C152.199 119.361 152.296 119.716 152.489 120.026C152.688 120.337 152.964 120.577 153.315 120.747C153.673 120.917 154.071 121.002 154.511 121.002C154.95 121.002 155.346 120.917 155.697 120.747C156.049 120.577 156.324 120.337 156.523 120.026C156.723 119.716 156.822 119.361 156.822 118.963C156.822 118.559 156.723 118.204 156.523 117.899C156.324 117.595 156.049 117.36 155.697 117.196C155.352 117.032 154.956 116.953 154.511 116.959ZM178.83 130.547H176.853V114.674H178.83V130.547ZM174.093 116.361C174.093 118.02 173.853 119.54 173.372 120.923C172.897 122.3 172.115 123.568 171.025 124.729C169.936 125.883 168.491 126.888 166.692 127.743L165.655 126.179C167.185 125.452 168.427 124.626 169.382 123.7C170.337 122.774 171.037 121.734 171.482 120.58C171.928 119.426 172.15 118.131 172.15 116.695V116.361H174.093ZM173.029 117.908H166.464V116.361H173.029V117.908Z" fill="#434343"/>
</g>
<defs>
<clipPath id="clip0_1972_10289">
<rect width="393" height="852" fill="white"/>
</clipPath>
<clipPath id="clip1_1972_10289">
<rect width="202.222" height="384.946" fill="white" transform="translate(152.171 409.266) rotate(-37.0775)"/>
</clipPath>
<clipPath id="clip2_1972_10289">
<rect width="124" height="98.812" fill="white" transform="translate(32 164)"/>
</clipPath>
</defs>
</svg>
