<svg width="131" height="181" viewBox="0 0 131 181" fill="none" xmlns="http://www.w3.org/2000/svg">
<g clip-path="url(#clip0_1230_10023)">
<path d="M110.987 159.504C110.987 159.504 111.267 161.289 108.966 163.062C106.677 164.836 92.2591 168.173 71.2418 167.803C50.2367 168.173 35.8192 164.836 33.53 163.062C31.2285 161.289 31.4964 159.504 31.4964 159.504C31.4964 159.504 30.4127 145.823 37.317 117.919C44.1726 90.2116 56.7391 85.1504 71.0835 85.6184C71.1931 85.606 71.3027 85.6184 71.4123 85.6184C85.7566 85.1504 98.3232 90.2116 105.179 117.919C112.071 145.823 110.987 159.504 110.987 159.504Z" fill="#514FFF"/>
<path opacity="0.8" d="M121.167 59.3276C121.167 85.1135 98.8105 102.612 71.2421 102.612C43.6736 102.612 21.3047 85.1135 21.3047 59.3276C21.3047 40.6716 33.0067 24.5646 49.9325 17.0898C51.1746 20.624 56.1549 21.5599 56.1549 21.5599H86.4632C86.4632 21.5599 91.6871 21.2151 92.6734 17.1391C109.526 24.6508 121.167 40.7208 121.167 59.3276Z" fill="#F6F6F6"/>
<path d="M70.8402 135.306C80.3747 135.035 85.1846 143.655 86.938 149.615C88.6915 155.575 88.2897 164.737 88.2897 164.737C76.7947 166.264 65.4458 166.178 54.1944 165.082C54.1944 165.082 53.4881 152.706 56.8977 145.244C59.4061 139.776 61.0865 135.589 70.828 135.318L70.8402 135.306Z" fill="#8886FF"/>
<path d="M92.8194 16.0922C92.7951 16.4616 92.7464 16.8187 92.6733 17.1389C91.687 21.2149 86.4631 21.5597 86.4631 21.5597H56.1548C56.1548 21.5597 51.1745 20.6238 49.9325 17.0896C49.7376 16.5478 49.6402 15.9444 49.6524 15.2671C49.7498 11.7945 55.9844 6.35166 65.7746 4.77544C66.079 6.53637 68.5874 7.21365 71.242 7.21365C73.8966 7.21365 76.5998 6.63488 76.7338 4.71387C86.731 6.20389 93.0508 11.7576 92.8194 16.0922Z" fill="#FFD95C"/>
<path d="M76.7462 4.55397C76.7462 4.55397 76.7462 4.6648 76.734 4.71405C76.6001 6.63507 74.0064 7.21384 71.2422 7.21384C68.4781 7.21384 66.0792 6.53656 65.7748 4.77563C65.7505 4.65248 65.7383 4.52934 65.7383 4.39389C65.7383 2.33741 68.3076 0.428711 71.1448 0.428711C73.982 0.428711 76.7462 2.4975 76.7462 4.55397Z" fill="#514FFF"/>
<path d="M65.2998 122.019H77.1844C76.2468 124.285 73.9332 125.898 71.2421 125.898C68.551 125.898 66.2374 124.285 65.2998 122.019Z" fill="#FDE186"/>
<path d="M77.1844 117.463H65.2998C66.2374 115.197 68.551 113.584 71.2421 113.584C73.9332 113.584 76.2468 115.197 77.1844 117.463Z" fill="#FDE186"/>
<path d="M78.5115 117.463H63.9723C62.8021 117.463 61.8535 118.422 61.8535 119.606V119.876C61.8535 121.06 62.8021 122.019 63.9723 122.019H78.5115C79.6817 122.019 80.6303 121.06 80.6303 119.876V119.606C80.6303 118.422 79.6817 117.463 78.5115 117.463Z" fill="#B7B6FF"/>
<path d="M49.4873 92.8971C55.8602 92.8971 61.0264 88.1236 61.0264 82.2352C61.0264 76.3468 55.8602 71.5732 49.4873 71.5732C43.1145 71.5732 37.9482 76.3468 37.9482 82.2352C37.9482 88.1236 43.1145 92.8971 49.4873 92.8971Z" fill="#B7B6FF"/>
<path d="M66.2326 95.7389C71.5121 99.3289 78.4502 98.2846 81.7293 93.4064C85.0084 88.5282 83.3867 81.6634 78.1072 78.0735C72.8277 74.4835 65.8896 75.5278 62.6105 80.406C59.3315 85.2842 60.9531 92.149 66.2326 95.7389Z" fill="#FCE2DD"/>
<path d="M55.8293 78.9992C61.1088 82.5892 68.0469 81.5449 71.326 76.6667C74.6051 71.7885 72.9834 64.9237 67.7039 61.3337C62.4244 57.7437 55.4863 58.788 52.2072 63.6662C48.9281 68.5444 50.5498 75.4092 55.8293 78.9992Z" fill="#FFD95C"/>
<path d="M84.9562 87.3693C90.2357 90.9593 97.1738 89.915 100.453 85.0368C103.732 80.1586 102.11 73.2938 96.8309 69.7038C91.5514 66.1139 84.6133 67.1582 81.3342 72.0363C78.0551 76.9145 79.6767 83.7793 84.9562 87.3693Z" fill="#3FA654"/>
<path d="M72.4738 76.9069C77.7533 80.4969 84.6914 79.4526 87.9705 74.5744C91.2496 69.6962 89.6279 62.8314 84.3484 59.2414C79.0689 55.6515 72.1308 56.6958 68.8518 61.5739C65.5727 66.4521 67.1943 73.3169 72.4738 76.9069Z" fill="#E0F1E4"/>
</g>
<path d="M11.5853 162.241C17.7077 164.02 23.9884 160.877 25.6138 155.22C27.2391 149.563 23.5936 143.535 17.4712 141.755C11.3489 139.976 5.06813 143.119 3.44278 148.776C1.81743 154.433 5.46297 160.461 11.5853 162.241Z" fill="#9099A0"/>
<path d="M113.529 176.888C119.651 178.668 125.932 175.524 127.557 169.867C129.182 164.211 125.537 158.182 119.415 156.403C113.292 154.623 107.011 157.767 105.386 163.424C103.761 169.08 107.406 175.109 113.529 176.888Z" fill="#F05F42"/>
<defs>
<clipPath id="clip0_1230_10023">
<rect width="99.8626" height="167.399" fill="white" transform="translate(21.3047 0.428711)"/>
</clipPath>
</defs>
</svg>
