<svg width="91" height="73" viewBox="0 0 91 73" fill="none" xmlns="http://www.w3.org/2000/svg">
<path d="M27.0902 21.8076L26.6602 21.9076C24.0302 22.5476 21.3202 21.2976 20.0802 18.8876C17.9302 14.6876 14.6502 12.7276 12.0402 11.8176C9.64018 10.9776 7.98018 8.76759 8.00018 6.22759V5.80759C8.02018 1.76759 12.0202 -0.992409 15.8402 0.337591C21.2402 2.21759 27.2602 6.17759 30.9702 13.5476C32.6502 16.8776 30.7202 20.9176 27.0902 21.7976V21.8076Z" fill="#514FFF"/>
<path d="M33.2161 56.4328L32.8172 56.7123C30.2392 58.4796 26.6591 58.4197 24.1491 56.5825C19.7713 53.3776 15.2281 52.8584 11.9204 53.088C8.87536 53.2977 5.99573 51.84 4.77966 49.3139L4.58509 48.9146C2.66858 44.9308 5.67468 40.4578 10.4806 40.0984C17.3197 39.5992 25.8516 40.8871 33.5079 46.5782C36.9615 49.1442 36.7864 53.9766 33.2258 56.4228L33.2161 56.4328Z" fill="#FFD95C"/>
<path d="M6.78393 57.4802L7.1828 57.2161C9.76085 55.5471 13.3409 55.6037 15.8509 57.3387C20.2287 60.3656 24.7719 60.856 28.0796 60.6391C31.1246 60.4411 34.0043 61.8178 35.2203 64.2035L35.4149 64.5807C37.3314 68.3431 34.3253 72.5676 29.5194 72.9071C22.6803 73.3786 14.1484 72.1622 6.49207 66.7872C3.03846 64.3638 3.21357 59.7999 6.7742 57.4896L6.78393 57.4802Z" fill="#FFD95C"/>
<path d="M33.9226 26H6.07735C2.72092 26 0 28.2367 0 30.9959V31.0041C0 33.7633 2.72092 36 6.07735 36H33.9226C37.2791 36 40 33.7633 40 31.0041V30.9959C40 28.2367 37.2791 26 33.9226 26Z" fill="#514FFF"/>
<path d="M66.3884 19.42L66.0484 19.68C63.8984 21.32 60.9084 21.26 58.8184 19.56C55.1584 16.59 51.3784 16.11 48.6084 16.33C46.0684 16.53 43.6684 15.17 42.6484 12.84L42.4884 12.47C40.8884 8.77999 43.3984 4.62999 47.4084 4.30999C53.1084 3.84999 60.2384 5.03999 66.6184 10.31C69.4984 12.69 69.3484 17.17 66.3784 19.43L66.3884 19.42Z" fill="#FFD95C"/>
<path d="M68.1123 27.92C69.7423 31.69 67.1523 35.9 63.0523 36.21C62.3823 36.26 61.6923 36.29 60.9823 36.29C55.7523 36.29 49.6623 34.81 44.1223 30.27C41.1823 27.86 41.3323 23.31 44.3523 21.01L44.5523 20.86C46.7323 19.2 49.7523 19.26 51.8923 20.98C55.5323 23.91 59.2923 24.38 62.0523 24.17C64.5923 23.97 66.9923 25.33 68.0123 27.66L68.1223 27.92H68.1123Z" fill="#FFD95C"/>
<path d="M90.9184 21.37C90.9184 23.04 90.2384 24.55 89.1484 25.65C88.0484 26.74 86.5384 27.42 84.8584 27.42H83.1984V33.76C83.1984 37.11 80.4884 39.82 77.1484 39.82C73.8084 39.82 71.0984 37.11 71.0984 33.76V6.05C71.0984 2.71 73.8084 0 77.1484 0C78.8184 0 80.3284 0.68 81.4284 1.77C82.5184 2.87 83.1984 4.38 83.1984 6.05V15.31H84.8584C88.2084 15.31 90.9184 18.02 90.9184 21.37Z" fill="#514FFF"/>
<path d="M66 73C56.6241 73 49 66.0494 49 57.5C49 48.9506 56.6241 42 66 42C75.3759 42 83 48.9506 83 57.5C83 66.0494 75.3759 73 66 73ZM66 52.8811C62.6397 52.8811 59.7971 54.9907 59.7971 57.5C59.7971 60.0093 62.6397 62.1189 66 62.1189C69.3603 62.1189 72.1918 60.0093 72.1918 57.5C72.1918 54.9907 69.3493 52.8811 66 52.8811Z" fill="#514FFF"/>
</svg>
