<svg width="120" height="120" viewBox="0 0 120 120" fill="none" xmlns="http://www.w3.org/2000/svg">
<rect width="120" height="120" rx="30" fill="#514FFF"/>
<path d="M42.0902 45.8076L41.6602 45.9076C39.0302 46.5476 36.3202 45.2976 35.0802 42.8876C32.9302 38.6876 29.6502 36.7276 27.0402 35.8176C24.6402 34.9776 22.9802 32.7676 23.0002 30.2276V29.8076C23.0202 25.7676 27.0202 23.0076 30.8402 24.3376C36.2402 26.2176 42.2602 30.1776 45.9702 37.5476C47.6502 40.8776 45.7202 44.9176 42.0902 45.7976V45.8076Z" fill="white"/>
<path d="M48.2161 80.4328L47.8172 80.7123C45.2392 82.4796 41.6591 82.4197 39.1491 80.5825C34.7713 77.3776 30.2281 76.8584 26.9204 77.088C23.8754 77.2977 20.9957 75.84 19.7797 73.3139L19.5851 72.9146C17.6686 68.9308 20.6747 64.4578 25.4806 64.0984C32.3197 63.5992 40.8516 64.8871 48.5079 70.5782C51.9615 73.1442 51.7864 77.9766 48.2258 80.4228L48.2161 80.4328Z" fill="#FFD95C"/>
<path d="M21.7839 81.4802L22.1828 81.2161C24.7608 79.5471 28.3409 79.6037 30.8509 81.3387C35.2287 84.3656 39.7719 84.856 43.0796 84.6391C46.1246 84.4411 49.0043 85.8178 50.2203 88.2035L50.4149 88.5807C52.3314 92.3431 49.3253 96.5676 44.5194 96.9071C37.6803 97.3786 29.1484 96.1622 21.4921 90.7872C18.0385 88.3638 18.2136 83.7999 21.7742 81.4896L21.7839 81.4802Z" fill="#FFD95C"/>
<path d="M48.9226 50H21.0773C17.7209 50 15 52.2367 15 54.9959V55.0041C15 57.7633 17.7209 60 21.0773 60H48.9226C52.2791 60 55 57.7633 55 55.0041V54.9959C55 52.2367 52.2791 50 48.9226 50Z" fill="white"/>
<path d="M81.3884 43.42L81.0484 43.68C78.8984 45.32 75.9084 45.26 73.8184 43.56C70.1584 40.59 66.3784 40.11 63.6084 40.33C61.0684 40.53 58.6684 39.17 57.6484 36.84L57.4884 36.47C55.8884 32.78 58.3984 28.63 62.4084 28.31C68.1084 27.85 75.2384 29.04 81.6184 34.31C84.4984 36.69 84.3484 41.17 81.3784 43.43L81.3884 43.42Z" fill="#FFD95C"/>
<path d="M83.1123 51.92C84.7423 55.69 82.1523 59.9 78.0523 60.21C77.3823 60.26 76.6923 60.29 75.9823 60.29C70.7523 60.29 64.6623 58.81 59.1223 54.27C56.1823 51.86 56.3323 47.31 59.3523 45.01L59.5523 44.86C61.7323 43.2 64.7523 43.26 66.8923 44.98C70.5323 47.91 74.2923 48.38 77.0523 48.17C79.5923 47.97 81.9923 49.33 83.0123 51.66L83.1223 51.92H83.1123Z" fill="#FFD95C"/>
<path d="M105.918 45.37C105.918 47.04 105.238 48.55 104.148 49.65C103.048 50.74 101.538 51.42 99.8584 51.42H98.1984V57.76C98.1984 61.11 95.4884 63.82 92.1484 63.82C88.8084 63.82 86.0984 61.11 86.0984 57.76V30.05C86.0984 26.71 88.8084 24 92.1484 24C93.8184 24 95.3284 24.68 96.4284 25.77C97.5184 26.87 98.1984 28.38 98.1984 30.05V39.31H99.8584C103.208 39.31 105.918 42.02 105.918 45.37Z" fill="white"/>
<path d="M81 97C71.6241 97 64 90.0494 64 81.5C64 72.9506 71.6241 66 81 66C90.3759 66 98 72.9506 98 81.5C98 90.0494 90.3759 97 81 97ZM81 76.8811C77.6397 76.8811 74.7971 78.9907 74.7971 81.5C74.7971 84.0093 77.6397 86.1189 81 86.1189C84.3603 86.1189 87.1918 84.0093 87.1918 81.5C87.1918 78.9907 84.3493 76.8811 81 76.8811Z" fill="white"/>
</svg>
