<svg width="35" height="28" viewBox="0 0 35 28" fill="none" xmlns="http://www.w3.org/2000/svg">
<path d="M10.3907 8.36456L10.2258 8.40291C9.21704 8.64839 8.17759 8.16894 7.70197 7.24456C6.87732 5.6336 5.61923 4.88182 4.61814 4.53277C3.69759 4.21058 3.06088 3.36291 3.06855 2.38866V2.22757C3.07622 0.67798 4.61047 -0.38065 6.07567 0.129487C8.14691 0.850583 10.4559 2.36949 11.879 5.19634C12.5233 6.4736 11.7831 8.02319 10.3907 8.36072V8.36456Z" fill="#514FFF"/>
<path d="M12.7404 21.6454L12.5874 21.7527C11.5986 22.4305 10.2254 22.4075 9.26267 21.7029C7.5835 20.4736 5.8409 20.2744 4.5722 20.3625C3.40424 20.4429 2.29972 19.8838 1.83329 18.9149L1.75866 18.7617C1.02356 17.2337 2.17659 15.518 4.01994 15.3802C6.64317 15.1887 9.91567 15.6827 12.8523 17.8656C14.177 18.8498 14.1099 20.7033 12.7441 21.6416L12.7404 21.6454Z" fill="#FFD95C"/>
<path d="M2.60205 22.0472L2.75504 21.9459C3.74388 21.3058 5.11707 21.3275 6.07979 21.993C7.75895 23.154 9.50155 23.342 10.7703 23.2589C11.9382 23.1829 13.0427 23.711 13.5092 24.626L13.5838 24.7707C14.3189 26.2138 13.1659 27.8342 11.3225 27.9644C8.69929 28.1452 5.42678 27.6787 2.4901 25.6171C1.16543 24.6875 1.2326 22.937 2.59832 22.0508L2.60205 22.0472Z" fill="#FFD95C"/>
<path d="M13.0114 9.97263H2.33104C1.04364 9.97263 0 10.8305 0 11.8889V11.892C0 12.9503 1.04364 13.8082 2.33104 13.8082H13.0114C14.2988 13.8082 15.3425 12.9503 15.3425 11.892V11.8889C15.3425 10.8305 14.2988 9.97263 13.0114 9.97263Z" fill="#514FFF"/>
<path d="M25.4641 7.44876L25.3336 7.54849C24.509 8.17753 23.3621 8.15451 22.5605 7.50246C21.1567 6.36328 19.7068 6.17917 18.6443 6.26356C17.6701 6.34027 16.7495 5.81862 16.3583 4.92493L16.2969 4.78301C15.6832 3.36767 16.646 1.77588 18.1841 1.65315C20.3704 1.47671 23.1052 1.93315 25.5523 3.95452C26.6569 4.86739 26.5994 6.58575 25.4602 7.4526L25.4641 7.44876Z" fill="#FFD95C"/>
<path d="M26.1253 10.7091C26.7505 12.1551 25.757 13.7699 24.1844 13.8888C23.9274 13.908 23.6628 13.9195 23.3905 13.9195C21.3844 13.9195 19.0485 13.3518 16.9236 11.6104C15.7959 10.6861 15.8535 8.94085 17.0118 8.05866L17.0885 8.00112C17.9247 7.36441 19.0831 7.38742 19.9039 8.04715C21.3 9.17099 22.7422 9.35126 23.8009 9.27071C24.7751 9.194 25.6957 9.71564 26.0869 10.6093L26.1291 10.7091H26.1253Z" fill="#FFD95C"/>
<path d="M34.8728 8.19671C34.8728 8.83726 34.612 9.41644 34.1939 9.83836C33.772 10.2564 33.1928 10.5173 32.5484 10.5173H31.9117V12.949C31.9117 14.234 30.8723 15.2734 29.5912 15.2734C28.3101 15.2734 27.2706 14.234 27.2706 12.949V2.32055C27.2706 1.03945 28.3101 0 29.5912 0C30.2317 0 30.8109 0.260822 31.2328 0.678904C31.6509 1.10082 31.9117 1.68 31.9117 2.32055V5.87233H32.5484C33.8334 5.87233 34.8728 6.91178 34.8728 8.19671Z" fill="#514FFF"/>
<path d="M25.3151 28C21.7188 28 18.7945 25.334 18.7945 22.0548C18.7945 18.7756 21.7188 16.1096 25.3151 16.1096C28.9113 16.1096 31.8356 18.7756 31.8356 22.0548C31.8356 25.334 28.9113 28 25.3151 28ZM25.3151 20.2832C24.0262 20.2832 22.9359 21.0923 22.9359 22.0548C22.9359 23.0173 24.0262 23.8264 25.3151 23.8264C26.604 23.8264 27.69 23.0173 27.69 22.0548C27.69 21.0923 26.5997 20.2832 25.3151 20.2832Z" fill="#514FFF"/>
</svg>
