<svg width="152" height="141" viewBox="0 0 152 141" fill="none" xmlns="http://www.w3.org/2000/svg">
<path d="M7.73857 100.963C7.73857 98.9665 6.11247 97.3477 4.10659 97.3477C2.1007 97.3477 0.474609 98.9665 0.474609 100.963V137.384C0.474609 139.381 2.1007 141 4.10659 141C6.11247 141 7.73857 139.381 7.73857 137.384V100.963Z" fill="#F05F42"/>
<path d="M58.9738 102.166C58.9738 104.167 57.3445 105.782 55.3418 105.782H43.6855C43.4954 105.782 43.3461 105.931 43.3461 106.12V109.026C43.3461 109.215 43.4954 109.364 43.6855 109.364H52.925C54.9277 109.364 56.557 110.986 56.557 112.98C56.557 114.974 54.9277 116.596 52.925 116.596H43.6855C43.4954 116.596 43.3461 116.744 43.3461 116.933V120.84C43.3461 121.029 43.4954 121.178 43.6855 121.178H50.0466C51.866 121.178 53.3391 122.644 53.3391 124.449V125.138C53.3391 126.943 51.866 128.409 50.0466 128.409H43.6855C43.4954 128.409 43.3461 128.558 43.3461 128.747V132.653C43.3461 132.843 43.4954 132.991 43.6855 132.991H46.6861C48.6888 132.991 50.3181 134.613 50.3181 136.607C50.3181 138.608 48.6956 140.223 46.6929 140.223H17.6575C17.5285 140.223 17.4063 140.216 17.2773 140.203H16.3337C16.2454 140.203 16.1572 140.169 16.0961 140.101L11.8667 135.891C11.8056 135.83 11.7716 135.742 11.7648 135.654L11.3711 102.721C11.3711 102.612 11.4254 102.504 11.5137 102.444L16.9107 98.6048C16.965 98.5642 17.0397 98.5439 17.1076 98.5439H55.3486C57.3513 98.5439 58.9806 100.166 58.9806 102.16L58.9738 102.166Z" fill="#F05F42"/>
<path d="M38.0789 65.083H26.8164V95.57H38.0789V65.083Z" fill="#F05F42"/>
<path d="M31.1943 0C13.9644 0 0 13.902 0 31.0547C0 48.2075 13.9644 62.1095 31.1943 62.1095C48.4241 62.1095 62.3886 48.2075 62.3886 31.0547C62.3886 13.902 48.4241 0 31.1943 0ZM43.8892 41.3004C44.5477 41.9628 44.5477 43.0306 43.8892 43.6929C43.5566 44.0241 43.1221 44.1863 42.6876 44.1863C42.2532 44.1863 41.8187 44.0241 41.486 43.6929L31.1943 33.4472L20.9025 43.6929C20.5699 44.0241 20.1354 44.1863 19.7009 44.1863C19.2665 44.1863 18.832 44.0241 18.4993 43.6929C17.8408 43.0306 17.8408 41.9628 18.4993 41.3004L28.7911 31.0547L18.4993 20.809C17.8408 20.1467 17.8408 19.0789 18.4993 18.4233C19.1646 17.761 20.2372 17.761 20.9025 18.4233L31.1943 28.669L41.486 18.4233C42.1513 17.761 43.2239 17.761 43.8892 18.4233C44.5477 19.0789 44.5477 20.1467 43.8892 20.809L33.5975 31.0547L43.8892 41.3004Z" fill="#F05F42"/>
<path d="M138.24 137.384C138.24 139.381 139.866 141 141.872 141C143.878 141 145.504 139.381 145.504 137.384V100.963C145.504 98.9665 143.878 97.3476 141.872 97.3476C139.866 97.3476 138.24 98.9665 138.24 100.963V137.384Z" fill="#3FA654"/>
<path d="M87.0126 102.166C87.0126 104.167 88.6419 105.782 90.6446 105.782H102.301C102.491 105.782 102.64 105.931 102.64 106.12V109.026C102.64 109.215 102.491 109.364 102.301 109.364H93.0614C91.0587 109.364 89.4294 110.986 89.4294 112.98C89.4294 114.974 91.0587 116.596 93.0614 116.596H102.301C102.491 116.596 102.64 116.744 102.64 116.933V120.84C102.64 121.029 102.491 121.178 102.301 121.178H95.9398C94.1205 121.178 92.6473 122.644 92.6473 124.449V125.138C92.6473 126.943 94.1205 128.409 95.9398 128.409H102.301C102.491 128.409 102.64 128.558 102.64 128.747V132.653C102.64 132.843 102.491 132.991 102.301 132.991H99.3003C97.2976 132.991 95.6683 134.613 95.6683 136.607C95.6683 138.608 97.2908 140.223 99.2935 140.223H128.329C128.458 140.223 128.58 140.216 128.709 140.203H129.653C129.741 140.203 129.829 140.169 129.89 140.101L134.12 135.891C134.181 135.83 134.215 135.742 134.222 135.654L134.615 102.721C134.615 102.612 134.561 102.504 134.473 102.444L129.076 98.6048C129.021 98.5642 128.947 98.5439 128.879 98.5439H90.6378C88.6352 98.5439 87.0059 100.166 87.0059 102.16L87.0126 102.166Z" fill="#3FA654"/>
<path d="M107.907 95.5771H119.17V65.0901H107.907V95.5771Z" fill="#3FA654"/>
<path d="M114.792 0C97.5621 0 83.5977 13.902 83.5977 31.0547C83.5977 48.2075 97.5621 62.1095 114.792 62.1095C132.022 62.1095 145.986 48.2075 145.986 31.0547C145.986 13.902 132.022 0 114.792 0ZM132.755 20.5793L109.775 43.4564C109.442 43.7875 109.008 43.9565 108.573 43.9565C108.397 43.9565 108.214 43.9294 108.044 43.8686C108.044 43.8686 108.044 43.8754 108.037 43.8686C107.718 43.8078 107.413 43.6591 107.161 43.409L96.2994 32.5889C95.6341 31.9333 95.6341 30.8587 96.2994 30.2032C96.9647 29.5409 98.0373 29.5409 98.7026 30.2032L108.499 39.9555L130.359 18.1868C131.017 17.5245 132.096 17.5245 132.755 18.1868C133.42 18.8491 133.42 19.9169 132.755 20.5793Z" fill="#3FA654"/>
</svg>
