<svg width="225" height="179" viewBox="0 0 225 179" fill="none" xmlns="http://www.w3.org/2000/svg">
<path d="M65.3483 82.307L110.431 20.6802L154.687 80.239M65.3483 82.307L20.2656 159.651M65.3483 82.307L85.6149 159.651M154.687 80.239L145.587 159.651M154.687 80.239L205.973 159.651" stroke="#CDCED3" stroke-width="2"/>
<rect x="90.9922" width="39.7059" height="39.7059" rx="19.8529" fill="#8886FF"/>
<path d="M106.949 26.853H104.234L109.215 12.7124H112.34L117.34 26.853H114.625L113.453 23.3569H108.121L106.949 26.853ZM108.805 21.3062H112.77L110.836 15.603H110.719L108.805 21.3062Z" fill="#F6F6F6"/>
<rect y="138.971" width="39.7059" height="39.7059" rx="19.8529" fill="#D6D6FF"/>
<path d="M18.543 165.824V155.218H21.043V165.824H18.543ZM19.8125 153.714C19.0312 153.714 18.3672 153.109 18.3672 152.347C18.3672 151.605 19.0312 151 19.8125 151C20.6133 151 21.2578 151.605 21.2578 152.347C21.2578 153.109 20.6133 153.714 19.8125 153.714Z" fill="#F6F6F6"/>
<rect x="65.3516" y="138.971" width="39.7059" height="39.7059" rx="19.8529" fill="#D6D6FF"/>
<path d="M81.3945 165.824V155.218H83.8945V165.824H81.3945ZM82.6641 153.714C81.8828 153.714 81.2188 153.109 81.2188 152.347C81.2188 151.605 81.8828 151 82.6641 151C83.4648 151 84.1094 151.605 84.1094 152.347C84.1094 153.109 83.4648 153.714 82.6641 153.714ZM86.2773 165.824V155.218H88.7773V165.824H86.2773ZM87.5469 153.714C86.7656 153.714 86.1016 153.109 86.1016 152.347C86.1016 151.605 86.7656 151 87.5469 151C88.3477 151 88.9922 151.605 88.9922 152.347C88.9922 153.109 88.3477 153.714 87.5469 153.714Z" fill="#F6F6F6"/>
<rect x="125.734" y="138.971" width="39.7059" height="39.7059" rx="19.8529" fill="#D6D6FF"/>
<path d="M144.277 165.824V155.218H146.777V165.824H144.277ZM145.547 153.714C144.766 153.714 144.102 153.109 144.102 152.347C144.102 151.605 144.766 151 145.547 151C146.348 151 146.992 151.605 146.992 152.347C146.992 153.109 146.348 153.714 145.547 153.714Z" fill="#F6F6F6"/>
<rect x="185.293" y="138.971" width="39.7059" height="39.7059" rx="19.8529" fill="#D6D6FF"/>
<path d="M201.336 165.824V155.218H203.836V165.824H201.336ZM202.605 153.714C201.824 153.714 201.16 153.109 201.16 152.347C201.16 151.605 201.824 151 202.605 151C203.406 151 204.051 151.605 204.051 152.347C204.051 153.109 203.406 153.714 202.605 153.714ZM206.219 165.824V155.218H208.719V165.824H206.219ZM207.488 153.714C206.707 153.714 206.043 153.109 206.043 152.347C206.043 151.605 206.707 151 207.488 151C208.289 151 208.934 151.605 208.934 152.347C208.934 153.109 208.289 153.714 207.488 153.714Z" fill="#F6F6F6"/>
<rect x="45.4961" y="61.2134" width="39.7059" height="39.7059" rx="19.8529" fill="#B7B6FF"/>
<path d="M60.5508 85.0781C60.5508 82.6953 62.5234 81.9922 64.4961 81.875C65.2285 81.8262 66.752 81.7383 67.2109 81.7188V80.8789C67.2109 79.8242 66.5273 79.2188 65.2969 79.2188C64.1836 79.2188 63.5 79.7266 63.3047 80.4883H60.9023C61.0781 78.6914 62.6992 77.3242 65.3555 77.3242C67.3672 77.3242 69.6914 78.1445 69.6914 80.9766V88.0664H67.3086V86.6016H67.2305C66.7617 87.5 65.7656 88.2812 64.1055 88.2812C62.0742 88.2812 60.5508 87.168 60.5508 85.0781ZM62.9531 85.0586C62.9531 85.9766 63.6953 86.4453 64.75 86.4453C66.2539 86.4453 67.2305 85.4492 67.2305 84.2578V83.3789L64.8867 83.5352C63.6953 83.6328 62.9531 84.1211 62.9531 85.0586Z" fill="#F6F6F6"/>
<rect x="134.836" y="61.2129" width="39.7059" height="39.7059" rx="19.8529" fill="#B7B6FF"/>
<path d="M149.496 88.0659V73.9253H151.996V79.1987H152.094C152.484 78.437 153.246 77.3237 155.121 77.3237C157.582 77.3237 159.516 79.2378 159.516 82.7729C159.516 86.269 157.621 88.2612 155.141 88.2612C153.305 88.2612 152.484 87.1675 152.094 86.3862H151.938V88.0659H149.496ZM151.938 82.7534C151.938 84.8237 152.836 86.2104 154.438 86.2104C156.098 86.2104 156.977 84.7651 156.977 82.7534C156.977 80.7808 156.117 79.355 154.438 79.355C152.836 79.355 151.938 80.7026 151.938 82.7534Z" fill="#F6F6F6"/>
</svg>
