<svg width="36" height="28" viewBox="0 0 36 28" fill="none" xmlns="http://www.w3.org/2000/svg">
<g clip-path="url(#clip0_2044_3123)">
<path d="M18.0342 3.42857C18.0342 3.42857 25.0934 2.60293 25.9169 5.67735C26.5622 8.08473 23.7007 9.94025 21.9429 10.5942C20.3503 11.1874 18.4057 10.3943 18.3644 8.78435C18.3232 7.17436 20.2873 6.66594 21.8343 7.21999C24.0418 8.01303 27.7267 9.79033 25.9234 12.7474C24.1743 15.6132 18.4579 14.2488 18.4579 14.2488" stroke="#514FFF" stroke-width="3.47637" stroke-miterlimit="10" stroke-linecap="round"/>
<path d="M3.88965 13.7903C3.88965 13.7903 11.5355 12.9625 12.3611 16.0391C13.0064 18.4465 10.2166 20.5236 8.611 21.497C7.13571 22.3922 4.22859 21.6621 4.18731 20.0522C4.14603 18.4422 6.66206 17.7099 8.50236 18.1228C10.699 18.616 13.8125 21.1168 12.2351 24.1977C10.5817 27.4264 4.20469 25.8968 4.20469 25.8968" stroke="#514FFF" stroke-width="3.47637" stroke-miterlimit="10" stroke-linecap="round"/>
<path d="M5.09473 1.84682C6.99152 1.84682 9.82694 2.72677 10.7004 5.35143" stroke="#FFD95C" stroke-width="3.69365" stroke-miterlimit="10" stroke-linecap="round"/>
<path d="M1.84668 9.25584H13.9184" stroke="#FFD95C" stroke-width="3.69365" stroke-miterlimit="10" stroke-linecap="round"/>
<path d="M30.4512 2.36394V15.1114" stroke="#FFD95C" stroke-width="3.69365" stroke-miterlimit="10" stroke-linecap="round"/>
<path d="M33.2903 9.7534H31.6934" stroke="#FFD95C" stroke-width="3.69365" stroke-miterlimit="10" stroke-linecap="round"/>
<path d="M24.9604 25.7034C27.994 25.7034 30.4531 24.1246 30.4531 22.1771C30.4531 20.2295 27.994 18.6507 24.9604 18.6507C21.9269 18.6507 19.4678 20.2295 19.4678 22.1771C19.4678 24.1246 21.9269 25.7034 24.9604 25.7034Z" stroke="#FFD95C" stroke-width="3.69365" stroke-miterlimit="10" stroke-linecap="round"/>
</g>
<defs>
<clipPath id="clip0_2044_3123">
<rect width="35.1374" height="28" fill="white"/>
</clipPath>
</defs>
</svg>
