<svg width="40" height="40" viewBox="0 0 40 40" fill="none" xmlns="http://www.w3.org/2000/svg">
<circle cx="20" cy="20" r="20" fill="#8886FF"/>
<circle cx="19.9999" cy="20" r="15.2941" fill="#B7B6FF"/>
<circle cx="20.0001" cy="20" r="10.5882" fill="#EEEEFF"/>
<rect x="26.5542" y="11.1837" width="3.52941" height="11.7647" rx="1.76471" transform="rotate(45 26.5542 11.1837)" fill="#B7B6FF"/>
<path d="M23.3664 11.8759L25.3899 9.85237C26.3805 8.86171 28.0708 9.29769 28.4587 10.6439L28.4805 10.7196C28.6476 11.2994 29.1092 11.7475 29.6938 11.8973C30.9712 12.2245 31.4075 13.8175 30.475 14.75L28.3427 16.8822C27.8737 17.3512 27.2027 17.5572 26.5514 17.4321L24.7882 17.0936C23.9961 16.9415 23.3729 16.3284 23.2077 15.5389L22.823 13.6995C22.6848 13.0389 22.8891 12.3531 23.3664 11.8759Z" fill="#8886FF"/>
</svg>
