<svg width="40" height="40" viewBox="0 0 40 40" fill="none" xmlns="http://www.w3.org/2000/svg">
<rect y="2.22223" width="40" height="37.7778" rx="6.66667" fill="#B7B6FF"/>
<path d="M0 8.8889C0 5.207 2.98477 2.22223 6.66667 2.22223H33.3333C37.0152 2.22223 40 5.207 40 8.8889V11.1111H0V8.8889Z" fill="#8886FF"/>
<path d="M26.1111 30.2222C26.1111 28.6014 25.4673 27.047 24.3212 25.901C23.1752 24.7549 21.6208 24.1111 20 24.1111C18.3793 24.1111 16.8249 24.7549 15.6788 25.901C14.5328 27.047 13.8889 28.6014 13.8889 30.2222L20 30.2222H26.1111Z" fill="#EEEEFF"/>
<path d="M13.8889 18.3333C13.8889 19.9541 14.5327 21.5085 15.6788 22.6546C16.8248 23.8006 18.3792 24.4445 20 24.4445C21.6207 24.4445 23.1751 23.8006 24.3212 22.6546C25.4672 21.5085 26.1111 19.9541 26.1111 18.3333L20 18.3333L13.8889 18.3333Z" fill="#EEEEFF"/>
<rect x="12.2222" y="15.7778" width="15.5556" height="3.33333" rx="1.66667" fill="#8886FF"/>
<rect x="12.2222" y="29.4445" width="15.5556" height="3.33333" rx="1.66667" fill="#8886FF"/>
<rect x="6.66675" width="3.33333" height="6.11111" rx="1.66667" fill="#B7B6FF"/>
<rect x="30" width="3.33333" height="6.11111" rx="1.66667" fill="#B7B6FF"/>
</svg>
